<?xml version="1.0" encoding="utf-8"?>
<!-- Generator: Adobe Illustrator 16.0.0, SVG Export Plug-In . SVG Version: 6.00 Build 0)  -->
<!DOCTYPE svg PUBLIC "-//W3C//DTD SVG 1.1//EN" "http://www.w3.org/Graphics/SVG/1.1/DTD/svg11.dtd">
<svg version="1.1" id="Layer_1" xmlns="http://www.w3.org/2000/svg" xmlns:xlink="http://www.w3.org/1999/xlink" x="0px" y="0px"
	 width="100px" height="100px" viewBox="0 0 100 100" enable-background="new 0 0 100 100" xml:space="preserve">
<g>
	<path d="M67.083,55.468c0-9.251-7.396-16.79-16.583-17.058V27.667c0-0.276-0.224-0.5-0.5-0.5s-0.5,0.224-0.5,0.5v10.744
		c-9.188,0.268-16.583,7.807-16.583,17.058c0,8.582,6.368,15.688,14.624,16.885c0.762,0.309,1.59,0.479,2.459,0.479
		s1.698-0.173,2.459-0.479C60.715,71.154,67.083,64.05,67.083,55.468z M44.367,66.197c0-3.105,2.527-5.633,5.633-5.633
		c3.105,0,5.633,2.524,5.633,5.633c0,2.326-1.416,4.326-3.43,5.185c-0.723,0.101-1.453,0.169-2.202,0.169s-1.48-0.068-2.202-0.169
		C45.783,70.523,44.367,68.523,44.367,66.197z M54.73,70.838c1.174-1.197,1.899-2.835,1.899-4.641c0-3.657-2.978-6.633-6.633-6.633
		c-3.657,0-6.633,2.976-6.633,6.633c0,1.806,0.727,3.441,1.902,4.641c-6.566-2.025-11.352-8.148-11.352-15.371
		c0-8.868,7.215-16.083,16.083-16.083S66.08,46.599,66.08,55.467C66.083,62.689,61.297,68.813,54.73,70.838z"/>
</g>
</svg>
