<?xml version="1.0" encoding="utf-8"?>
<!-- Generator: Adobe Illustrator 16.0.0, SVG Export Plug-In . SVG Version: 6.00 Build 0)  -->
<!DOCTYPE svg PUBLIC "-//W3C//DTD SVG 1.1//EN" "http://www.w3.org/Graphics/SVG/1.1/DTD/svg11.dtd">
<svg version="1.1" id="Layer_1" xmlns="http://www.w3.org/2000/svg" xmlns:xlink="http://www.w3.org/1999/xlink" x="0px" y="0px"
	 width="100px" height="100px" viewBox="0 0 100 100" enable-background="new 0 0 100 100" xml:space="preserve">
<g>
	<path d="M36.778,80.479v12.221c0,0.275,0.225,0.5,0.5,0.5h42.667c0.277,0,0.5-0.225,0.5-0.5V28.633
		c0-12.038-9.793-21.833-21.832-21.833s-21.834,9.796-21.834,21.833v14.286l-1.448-3.323c-0.135-0.37-0.275-0.699-0.45-1.029
		c-1.416-2.676-4.172-4.338-7.19-4.338c-4.485,0-8.136,3.648-8.136,8.135c0,1.29,0.301,2.531,0.886,3.678L36.778,80.479z
		 M79.445,87.863H37.778v-1h41.667V87.863z M37.778,92.197v-3.332h41.667v3.332H37.778z M27.688,35.229
		c2.647,0,5.064,1.458,6.316,3.827c0.142,0.266,0.268,0.555,0.396,0.91l2.377,5.456v15.192c0,0.275,0.225,0.5,0.5,0.5
		c0.276,0,0.5-0.225,0.5-0.5V45.316V28.633c0-11.487,9.347-20.833,20.833-20.833c11.488,0,20.832,9.347,20.832,20.833v57.23H37.778
		v-5.5c0-0.072-0.018-0.146-0.048-0.213L21.335,45.6c-0.52-1.018-0.781-2.105-0.781-3.236
		C20.554,38.431,23.753,35.229,27.688,35.229z"/>
	<path d="M54.104,74.625c0.1,0.098,0.228,0.146,0.354,0.146c0.129,0,0.256-0.049,0.354-0.146l3.803-3.805l3.804,3.805
		c0.099,0.098,0.226,0.146,0.354,0.146c0.127,0,0.256-0.049,0.354-0.146c0.195-0.195,0.195-0.514,0-0.707l-3.803-3.805l3.803-3.803
		c0.195-0.195,0.195-0.516,0-0.707c-0.193-0.195-0.512-0.195-0.707,0l-3.803,3.803l-3.803-3.803c-0.195-0.195-0.515-0.195-0.707,0
		c-0.195,0.191-0.195,0.512,0,0.707l3.803,3.803l-3.803,3.805C53.907,74.111,53.907,74.43,54.104,74.625z"/>
	<path d="M54.104,64.625c0.1,0.098,0.228,0.146,0.354,0.146c0.129,0,0.256-0.049,0.354-0.146l3.803-3.805l3.804,3.805
		c0.099,0.098,0.226,0.146,0.354,0.146c0.127,0,0.256-0.049,0.354-0.146c0.195-0.195,0.195-0.514,0-0.707l-3.803-3.805l3.803-3.803
		c0.195-0.195,0.195-0.516,0-0.707c-0.193-0.195-0.512-0.195-0.707,0l-3.803,3.803l-3.803-3.803c-0.195-0.195-0.515-0.195-0.707,0
		c-0.195,0.191-0.195,0.512,0,0.707l3.803,3.803l-3.803,3.805C53.907,64.111,53.907,64.43,54.104,64.625z"/>
	<path d="M54.104,54.625c0.1,0.098,0.228,0.146,0.354,0.146c0.129,0,0.256-0.049,0.354-0.146l3.803-3.805l3.804,3.805
		c0.099,0.098,0.226,0.146,0.354,0.146c0.127,0,0.256-0.049,0.354-0.146c0.195-0.195,0.195-0.514,0-0.707l-3.803-3.804l3.803-3.803
		c0.195-0.195,0.195-0.513,0-0.707c-0.193-0.195-0.512-0.195-0.707,0l-3.803,3.803l-3.803-3.803c-0.195-0.195-0.515-0.195-0.707,0
		c-0.195,0.194-0.195,0.512,0,0.707l3.803,3.803l-3.803,3.804C53.907,54.111,53.907,54.43,54.104,54.625z"/>
	<path d="M54.104,44.624c0.1,0.099,0.228,0.146,0.354,0.146c0.129,0,0.256-0.049,0.354-0.146l3.803-3.803l3.804,3.803
		c0.099,0.099,0.226,0.146,0.354,0.146c0.127,0,0.256-0.049,0.354-0.146c0.195-0.195,0.195-0.512,0-0.707l-3.803-3.803l3.803-3.803
		c0.195-0.195,0.195-0.513,0-0.707c-0.193-0.195-0.512-0.195-0.707,0l-3.803,3.803l-3.803-3.803c-0.195-0.195-0.515-0.195-0.707,0
		c-0.195,0.194-0.195,0.512,0,0.707l3.803,3.803l-3.803,3.803C53.907,44.11,53.907,44.429,54.104,44.624z"/>
	<path d="M54.104,34.624c0.1,0.099,0.228,0.146,0.354,0.146c0.129,0,0.256-0.049,0.354-0.146l3.803-3.803l3.804,3.803
		c0.099,0.099,0.226,0.146,0.354,0.146c0.127,0,0.256-0.049,0.354-0.146c0.195-0.195,0.195-0.512,0-0.707l-3.803-3.803l3.803-3.803
		c0.195-0.195,0.195-0.513,0-0.707c-0.193-0.195-0.512-0.195-0.707,0l-3.803,3.803l-3.803-3.803c-0.195-0.195-0.515-0.195-0.707,0
		c-0.195,0.194-0.195,0.512,0,0.707l3.803,3.803l-3.803,3.803C53.907,34.11,53.907,34.429,54.104,34.624z"/>
	<path d="M54.456,78.738h8.313c0.274,0,0.5-0.223,0.5-0.5c0-0.275-0.226-0.5-0.5-0.5h-8.313c-0.274,0-0.5,0.225-0.5,0.5
		C53.956,78.516,54.182,78.738,54.456,78.738z"/>
	<path d="M54.456,80.738h8.313c0.274,0,0.5-0.223,0.5-0.5c0-0.275-0.226-0.5-0.5-0.5h-8.313c-0.274,0-0.5,0.225-0.5,0.5
		C53.956,80.516,54.182,80.738,54.456,80.738z"/>
	<path d="M54.456,20.114h8.313c0.274,0,0.5-0.224,0.5-0.5c0-0.276-0.226-0.5-0.5-0.5h-8.313c-0.274,0-0.5,0.224-0.5,0.5
		C53.956,19.89,54.182,20.114,54.456,20.114z"/>
	<path d="M54.456,22.114h8.313c0.274,0,0.5-0.224,0.5-0.5c0-0.276-0.226-0.5-0.5-0.5h-8.313c-0.274,0-0.5,0.224-0.5,0.5
		C53.956,21.89,54.182,22.114,54.456,22.114z"/>
</g>
</svg>
