<?xml version="1.0" encoding="utf-8"?>
<!-- Generator: Adobe Illustrator 16.0.0, SVG Export Plug-In . SVG Version: 6.00 Build 0)  -->
<!DOCTYPE svg PUBLIC "-//W3C//DTD SVG 1.1//EN" "http://www.w3.org/Graphics/SVG/1.1/DTD/svg11.dtd">
<svg version="1.1" id="Layer_1" xmlns="http://www.w3.org/2000/svg" xmlns:xlink="http://www.w3.org/1999/xlink" x="0px" y="0px"
	 width="100px" height="100px" viewBox="0 0 100 100" enable-background="new 0 0 100 100" xml:space="preserve">
<g>
	<path d="M50,24.79c-3.505,0-6.356,2.854-6.356,6.356c0,3.506,2.852,6.355,6.356,6.355c3.506,0,6.357-2.852,6.357-6.355
		C56.357,27.644,53.506,24.79,50,24.79z M50,36.505c-2.954,0-5.356-2.401-5.356-5.355c0-2.953,2.402-5.356,5.356-5.356
		c2.955,0,5.357,2.403,5.357,5.356S52.953,36.505,50,36.505z"/>
	<path d="M60.041,31.147c0-5.536-4.504-10.042-10.042-10.042s-10.041,4.506-10.041,10.042c0,5.537,4.504,10.042,10.042,10.042
		C55.539,41.189,60.041,36.687,60.041,31.147z M50,40.188c-4.984,0-9.042-4.058-9.042-9.042c0-4.985,4.056-9.042,9.042-9.042
		c4.986,0,9.043,4.057,9.043,9.042C59.043,36.133,54.984,40.188,50,40.188z"/>
	<path d="M63.568,83.248c0.041,0.011,0.082,0.016,0.125,0.016c0.105,0,0.215-0.035,0.303-0.102c0.122-0.094,0.193-0.237,0.197-0.391
		l0.928-58.58c0-4.183-6.643-7.455-15.121-7.455c-8.478,0-15.121,3.272-15.121,7.455C34.879,75.24,63.281,83.174,63.568,83.248z
		 M50,17.737c7.654,0,14.121,2.955,14.121,6.447L63.205,82.08C59.1,80.613,35.879,70.261,35.879,24.192
		C35.879,20.692,42.345,17.737,50,17.737z"/>
</g>
</svg>
