<?xml version="1.0" encoding="utf-8"?>
<!-- Generator: Adobe Illustrator 16.0.0, SVG Export Plug-In . SVG Version: 6.00 Build 0)  -->
<!DOCTYPE svg PUBLIC "-//W3C//DTD SVG 1.1//EN" "http://www.w3.org/Graphics/SVG/1.1/DTD/svg11.dtd">
<svg version="1.1" id="Layer_1" xmlns="http://www.w3.org/2000/svg" xmlns:xlink="http://www.w3.org/1999/xlink" x="0px" y="0px"
	 width="100px" height="100px" viewBox="0 0 100 100" enable-background="new 0 0 100 100" xml:space="preserve">
<g>
	<path d="M49.576,11.047c-0.619,0.997-15.164,24.495-15.164,32.875c0,8.428,6.725,15.296,15.088,15.563v29.188
		c0,0.276,0.224,0.5,0.5,0.5s0.5-0.224,0.5-0.5V59.484c8.361-0.27,15.088-7.137,15.088-15.563c0-8.379-14.544-31.878-15.164-32.875
		C50.243,10.754,49.759,10.754,49.576,11.047z M50.001,42.327c-0.276,0-0.5,0.224-0.5,0.5v8.833
		c-4.523-0.262-8.126-4.014-8.126-8.602c0-4.228,6.835-15.804,8.626-18.765c1.791,2.96,8.626,14.537,8.626,18.765
		c0,4.588-3.604,8.338-8.126,8.602v-8.833C50.501,42.55,50.277,42.327,50.001,42.327z M50.501,58.484V52.66
		c5.075-0.264,9.126-4.463,9.126-9.602c0-5.124-8.826-19.383-9.201-19.988c-0.183-0.293-0.667-0.293-0.85,0
		c-0.375,0.605-9.201,14.864-9.201,19.988c0,5.139,4.051,9.338,9.126,9.602v5.824c-7.811-0.27-14.088-6.688-14.088-14.563
		c0-7.317,12.143-27.636,14.588-31.653c2.444,4.017,14.588,24.336,14.588,31.653C64.589,51.798,58.313,58.219,50.501,58.484z"/>
</g>
</svg>
