<?xml version="1.0" encoding="utf-8"?>
<!-- Generator: Adobe Illustrator 16.0.0, SVG Export Plug-In . SVG Version: 6.00 Build 0)  -->
<!DOCTYPE svg PUBLIC "-//W3C//DTD SVG 1.1//EN" "http://www.w3.org/Graphics/SVG/1.1/DTD/svg11.dtd">
<svg version="1.1" id="Layer_1" xmlns="http://www.w3.org/2000/svg" xmlns:xlink="http://www.w3.org/1999/xlink" x="0px" y="0px"
	 width="100px" height="100px" viewBox="0 0 100 100" enable-background="new 0 0 100 100" xml:space="preserve">
<g>
	<path d="M57.033,49.319l12.795-12.795c0.005-0.005,0.006-0.014,0.011-0.019c2.365-0.91,4.767-2.341,6.036-3.609
		c1.268-1.265,1.962-2.947,1.962-4.737c0-1.788-0.694-3.472-1.962-4.736c-1.268-1.266-2.945-1.962-4.734-1.962
		c-1.791,0-3.474,0.696-4.738,1.962c-1.289,1.291-2.752,3.756-3.657,6.161L50.02,42.307L37.184,29.471
		c-0.006-0.006-0.014-0.007-0.02-0.012c-0.911-2.365-2.341-4.767-3.609-6.035c-1.266-1.266-2.947-1.962-4.737-1.962
		c-1.789,0-3.471,0.696-4.735,1.962c-1.266,1.265-1.962,2.947-1.962,4.736s0.695,3.472,1.962,4.736
		c1.292,1.291,3.757,2.752,6.161,3.659l12.764,12.764L20.949,71.377c-0.195,0.195-0.195,0.514,0,0.707l6.306,6.309
		c0.094,0.094,0.221,0.146,0.354,0.146c0.134,0,0.261-0.055,0.354-0.146l22.058-22.061L72.037,78.35
		c0.094,0.094,0.221,0.146,0.354,0.146s0.26-0.053,0.354-0.146l6.306-6.307c0.195-0.193,0.195-0.512,0-0.707L57.033,49.319z
		 M67.107,24.13c1.076-1.077,2.509-1.669,4.029-1.669s2.952,0.593,4.028,1.669c1.076,1.077,1.669,2.508,1.669,4.029
		c0,1.522-0.593,2.954-1.669,4.03c-1.146,1.147-3.42,2.503-5.608,3.358l-2.904-2.903l-2.903-2.903
		C64.605,27.55,65.962,25.276,67.107,24.13z M63.168,30.572l2.979,2.977l2.623,2.623L56.326,48.612l-5.6-5.599L63.168,30.572z
		 M23.119,28.16c0-1.521,0.593-2.953,1.669-4.029c1.076-1.076,2.508-1.669,4.028-1.669c1.522,0,2.954,0.593,4.03,1.669
		c1.146,1.146,2.502,3.42,3.358,5.609L33.3,32.643l-2.904,2.903c-2.189-0.855-4.463-2.211-5.609-3.358
		C23.712,31.112,23.119,29.683,23.119,28.16z M49.312,55.625L27.607,77.33l-5.599-5.598l21.704-21.707L49.312,55.625z
		 M72.391,77.289L31.23,36.129l2.978-2.977l2.623-2.623l12.835,12.835c0.001,0.001,0.001,0.001,0.001,0.002l6.308,6.307l0,0
		l22.018,22.016L72.391,77.289z"/>
	<path d="M40.07,37.852c-0.194-0.195-0.512-0.195-0.706,0c-0.195,0.195-0.195,0.512,0,0.707l17.955,17.957
		c0.101,0.098,0.229,0.146,0.354,0.146s0.257-0.051,0.354-0.146c0.195-0.195,0.195-0.514,0-0.707L40.07,37.852z"/>
	<path d="M69.868,69.768c0.098,0.1,0.228,0.146,0.354,0.146c0.129,0,0.256-0.049,0.354-0.146c0.193-0.193,0.193-0.514,0-0.707
		l-2.779-2.777c-0.193-0.195-0.512-0.195-0.707,0c-0.193,0.193-0.193,0.512,0,0.707L69.868,69.768z"/>
</g>
</svg>
