<?xml version="1.0" encoding="utf-8"?>
<!-- Generator: Adobe Illustrator 16.0.0, SVG Export Plug-In . SVG Version: 6.00 Build 0)  -->
<!DOCTYPE svg PUBLIC "-//W3C//DTD SVG 1.1//EN" "http://www.w3.org/Graphics/SVG/1.1/DTD/svg11.dtd">
<svg version="1.1" id="Layer_1" xmlns="http://www.w3.org/2000/svg" xmlns:xlink="http://www.w3.org/1999/xlink" x="0px" y="0px"
	 width="100px" height="100px" viewBox="0 0 100 100" enable-background="new 0 0 100 100" xml:space="preserve">
<g>
	<path d="M37.84,72.682c4.762,0,8.636-3.873,8.636-8.635v-27.81l23.605-7.821c-0.168,0.081-0.285,0.249-0.285,0.447v24.148
		c-1.447-2.74-4.324-4.614-7.637-4.614c-4.764,0-8.639,3.875-8.639,8.637c0,4.762,3.875,8.636,8.639,8.636
		c4.762,0,8.637-3.873,8.637-8.636v-28.17c0-0.276-0.227-0.5-0.5-0.5c-0.051,0-0.096,0.015-0.143,0.028l0.301-0.099
		c0.262-0.087,0.4-0.37,0.314-0.632c-0.088-0.262-0.371-0.404-0.633-0.317l-24.319,8.058c-0.006,0.002-0.011,0.007-0.017,0.01
		c-0.035,0.013-0.064,0.034-0.094,0.054c-0.024,0.016-0.051,0.029-0.071,0.048c-0.024,0.022-0.04,0.05-0.059,0.077
		c-0.018,0.026-0.039,0.049-0.052,0.078c-0.012,0.027-0.016,0.056-0.024,0.085c-0.009,0.035-0.02,0.068-0.021,0.104
		c0,0.007-0.004,0.013-0.004,0.02v24.147c-1.449-2.739-4.326-4.613-7.636-4.613c-4.762,0-8.636,3.875-8.636,8.637
		C29.206,68.813,33.079,72.682,37.84,72.682z M62.16,64.67c-4.209,0-7.639-3.426-7.639-7.636c0-4.211,3.43-7.637,7.639-7.637
		c4.211,0,7.637,3.426,7.637,7.637C69.797,61.244,66.371,64.67,62.16,64.67z M37.84,56.409c4.21,0,7.636,3.427,7.636,7.638
		c0,4.209-3.426,7.635-7.636,7.635s-7.636-3.426-7.636-7.635C30.205,59.836,33.629,56.409,37.84,56.409z"/>
</g>
</svg>
