<?xml version="1.0" encoding="utf-8"?>
<!-- Generator: Adobe Illustrator 16.0.0, SVG Export Plug-In . SVG Version: 6.00 Build 0)  -->
<!DOCTYPE svg PUBLIC "-//W3C//DTD SVG 1.1//EN" "http://www.w3.org/Graphics/SVG/1.1/DTD/svg11.dtd">
<svg version="1.1" id="Layer_1" xmlns="http://www.w3.org/2000/svg" xmlns:xlink="http://www.w3.org/1999/xlink" x="0px" y="0px"
	 width="100px" height="200px" viewBox="0 0 100 200" enable-background="new 0 0 100 200" xml:space="preserve">
<g>
	<path d="M56.69,159.622h4c0.276,0,0.5-0.224,0.5-0.5v-11.5c0-0.276-0.224-0.5-0.5-0.5h-4c-0.274,0-0.5,0.224-0.5,0.5v11.5
		C56.19,159.398,56.416,159.622,56.69,159.622z M57.19,148.122h3v10.5h-3V148.122z"/>
	<path d="M54.69,159.622c0.275,0,0.5-0.224,0.5-0.5v-11.5c0-0.276-0.225-0.5-0.5-0.5h-4c-0.274,0-0.501,0.224-0.501,0.5v11.5
		c0,0.276,0.226,0.5,0.501,0.5H54.69z M51.19,148.122h3v10.5h-3V148.122z"/>
	<path d="M47.69,147.122h-4c-0.274,0-0.5,0.224-0.5,0.5v11.5c0,0.276,0.226,0.5,0.5,0.5h4c0.276,0,0.5-0.224,0.5-0.5v-11.5
		C48.19,147.345,47.968,147.122,47.69,147.122z M47.19,158.622h-3v-10.5h3V158.622z"/>
	<path d="M62.69,159.622h4c0.276,0,0.5-0.224,0.5-0.5v-11.5c0-0.276-0.224-0.5-0.5-0.5h-4c-0.274,0-0.5,0.224-0.5,0.5v11.5
		C62.19,159.398,62.416,159.622,62.69,159.622z M63.19,148.122h3v10.5h-3V148.122z"/>
	<path d="M68.69,159.622h4c0.276,0,0.5-0.224,0.5-0.5v-11.5c0-0.276-0.224-0.5-0.5-0.5h-4c-0.274,0-0.5,0.224-0.5,0.5v11.5
		C68.19,159.398,68.416,159.622,68.69,159.622z M69.19,148.122h3v10.5h-3V148.122z"/>
	<path d="M21.396,149.455c-3.171,0-5.75,2.58-5.75,5.75s2.579,5.75,5.75,5.75s5.75-2.58,5.75-5.75S24.565,149.455,21.396,149.455z
		 M21.396,159.955c-2.619,0-4.75-2.131-4.75-4.75s2.131-4.75,4.75-4.75s4.75,2.131,4.75,4.75S24.015,159.955,21.396,159.955z"/>
	<path d="M87.19,182.289h-4.25v-3.5c0-0.275-0.224-0.5-0.5-0.5H67.19v-14h12.084c0.276,0,0.5-0.225,0.5-0.5v-20.833
		c0-0.276-0.224-0.5-0.5-0.5H70.19v-8.545c9.515-4.372,16.14-13.985,16.14-25.121c0-10.811-6.326-20.631-16.14-25.128V20.035
		c0-4.038-5.157-7.323-11.5-7.323c-6.34,0-11.501,3.285-11.501,7.323v63.627c-9.811,4.496-16.137,14.317-16.137,25.127
		c0,11.137,6.625,20.749,16.137,25.121v8.545h-9.083c-0.274,0-0.5,0.225-0.5,0.5v9.917h-7.25c-0.064,0-0.128,0.014-0.185,0.037
		c-1.021-3.899-4.563-6.787-8.778-6.787c-5.009,0-9.084,4.075-9.084,9.083s4.075,9.083,9.084,9.083c4.214,0,7.757-2.89,8.778-6.787
		c0.057,0.022,0.12,0.037,0.185,0.037h7.25v6.25c0,0.276,0.226,0.5,0.5,0.5H50.19v14H34.94c-0.274,0-0.5,0.224-0.5,0.5v3.5h-4.25
		c-0.274,0-0.5,0.224-0.5,0.5v4c0,0.276,0.226,0.5,0.5,0.5h57c0.277,0,0.5-0.224,0.5-0.5v-4
		C87.69,182.512,87.469,182.289,87.19,182.289z M58.69,13.711c5.791,0,10.5,2.836,10.5,6.323c0,3.487-4.709,6.323-10.5,6.323
		c-5.789,0-10.501-2.836-10.501-6.323C48.19,16.547,52.901,13.711,58.69,13.711z M58.69,27.358c4.681,0,8.707-1.791,10.5-4.35
		v60.447H48.189V23.008C49.984,25.567,54.015,27.358,58.69,27.358z M32.055,108.789c0-10.508,6.196-20.051,15.79-24.333h21.696
		c9.594,4.283,15.789,13.826,15.789,24.333c0,10.572-6.188,19.725-15.14,24.023v-7.023c0-0.275-0.224-0.5-0.5-0.5h-10.5v-3.025
		c3.299-0.257,5.906-3.016,5.906-6.379c0-3.365-5.736-12.633-5.979-13.025c-0.185-0.293-0.666-0.293-0.851,0
		c-0.244,0.396-5.979,9.66-5.979,13.025c0,3.363,2.605,6.123,5.902,6.379v3.025H47.689c-0.274,0-0.5,0.225-0.5,0.5v7.023
		C38.246,128.512,32.055,119.359,32.055,108.789z M58.69,114.955c-0.274,0-0.5,0.225-0.5,0.5v3.111
		c-1.455-0.24-2.569-1.498-2.569-3.021c0-1.313,1.938-4.848,3.069-6.755c1.136,1.907,3.072,5.438,3.072,6.755
		c0,1.521-1.115,2.78-2.572,3.021v-3.111C59.19,115.18,58.969,114.955,58.69,114.955z M59.19,119.566
		c2.009-0.25,3.572-1.946,3.572-4.021c0-2.056-3.273-7.382-3.646-7.982c-0.185-0.293-0.666-0.293-0.851,0
		c-0.373,0.604-3.646,5.93-3.646,7.982c0,2.074,1.563,3.771,3.569,4.021v1.697c-2.746-0.257-4.902-2.568-4.902-5.382
		c0-2.354,3.574-8.771,5.402-11.804c1.83,3.029,5.406,9.443,5.406,11.804c0,2.813-2.16,5.126-4.906,5.382V119.566z M69.19,126.289
		v6.977c-3.224,1.392-6.771,2.16-10.5,2.16c-3.728,0-7.274-0.771-10.501-2.16v-6.978L69.19,126.289L69.19,126.289z M48.19,134.348
		c3.24,1.336,6.785,2.078,10.5,2.078c3.719,0,7.264-0.742,10.5-2.078v8.107h-21V134.348z M21.396,163.289
		c-4.458,0-8.084-3.626-8.084-8.083s3.626-8.083,8.084-8.083c4.457,0,8.083,3.626,8.083,8.083S25.853,163.289,21.396,163.289z
		 M30.857,156.539v-2.667h6.75v2.667H30.857z M38.607,157.039v-3.667v-9.917h9.083h22h9.084v19.833H66.69h-16H38.607V157.039z
		 M51.19,164.289h15v14h-15V164.289z M35.44,179.289h15.25h16h15.25v3h-46.5V179.289z M86.69,186.289H30.689v-3h4.25H82.44h4.25
		V186.289z"/>
</g>
</svg>
