<?xml version="1.0" encoding="utf-8"?>
<!-- Generator: Adobe Illustrator 16.0.0, SVG Export Plug-In . SVG Version: 6.00 Build 0)  -->
<!DOCTYPE svg PUBLIC "-//W3C//DTD SVG 1.1//EN" "http://www.w3.org/Graphics/SVG/1.1/DTD/svg11.dtd">
<svg version="1.1" id="Layer_1" xmlns="http://www.w3.org/2000/svg" xmlns:xlink="http://www.w3.org/1999/xlink" x="0px" y="0px"
	 width="100px" height="100px" viewBox="0 0 100 100" enable-background="new 0 0 100 100" xml:space="preserve">
<g>
	<path d="M35.531,50.162c1.898,0,3.63-0.711,4.957-1.874l9.286,9.286V80.94c0,0.275,0.224,0.5,0.5,0.5s0.5-0.225,0.5-0.5V67.427
		c0.011-0.01,0.022-0.014,0.035-0.021l8.703-8.704c1.325,1.163,3.059,1.874,4.956,1.874c4.156,0,7.537-3.381,7.537-7.538
		c0-4.156-3.381-7.538-7.537-7.538c-4.155,0-7.536,3.382-7.536,7.538c0,1.897,0.711,3.63,1.873,4.957l-8.031,8.032V33.609
		c3.924-0.259,7.037-3.522,7.037-7.512c0-4.156-3.381-7.538-7.538-7.538c-4.156,0-7.538,3.381-7.538,7.538
		c0,3.987,3.115,7.253,7.038,7.512v22.552l-8.579-8.579c1.163-1.326,1.874-3.061,1.874-4.957c0-4.155-3.382-7.536-7.538-7.536
		c-4.156,0-7.537,3.381-7.537,7.536C27.994,46.779,31.376,50.162,35.531,50.162z M57.935,53.035c0-3.604,2.935-6.538,6.537-6.538
		c3.604,0,6.536,2.934,6.536,6.538s-2.932,6.536-6.536,6.536c-1.623,0-3.105-0.598-4.25-1.578l4.604-4.604
		c0.193-0.195,0.193-0.513,0-0.707c-0.195-0.195-0.514-0.195-0.707,0l-4.604,4.604C58.53,56.144,57.935,54.658,57.935,53.035z
		 M43.736,26.099c0-3.604,2.933-6.538,6.538-6.538c3.604,0,6.54,2.935,6.54,6.538c0,3.438-2.666,6.255-6.037,6.512v-6.512
		c0-0.275-0.227-0.5-0.501-0.5s-0.5,0.225-0.5,0.5v6.512C46.402,32.354,43.736,29.535,43.736,26.099z M35.531,36.089
		c3.605,0,6.538,2.933,6.538,6.536c0,1.623-0.598,3.104-1.58,4.25l-4.604-4.604c-0.195-0.193-0.512-0.193-0.707,0
		c-0.195,0.195-0.195,0.514,0,0.707l4.604,4.604c-1.144,0.98-2.628,1.58-4.251,1.58c-3.604,0-6.537-2.935-6.537-6.538
		C28.995,39.021,31.927,36.089,35.531,36.089z"/>
</g>
</svg>
