<?xml version="1.0" encoding="utf-8"?>
<!-- Generator: Adobe Illustrator 16.0.0, SVG Export Plug-In . SVG Version: 6.00 Build 0)  -->
<!DOCTYPE svg PUBLIC "-//W3C//DTD SVG 1.1//EN" "http://www.w3.org/Graphics/SVG/1.1/DTD/svg11.dtd">
<svg version="1.1" id="Layer_1" xmlns="http://www.w3.org/2000/svg" xmlns:xlink="http://www.w3.org/1999/xlink" x="0px" y="0px"
	 width="100px" height="100px" viewBox="0 0 100 100" enable-background="new 0 0 100 100" xml:space="preserve">
<g>
	<path d="M59.346,36.085l5.067-1.849c3.341-0.753,5.673-3.67,5.673-7.095c0-4.013-3.265-7.277-7.277-7.277
		c-0.863,0-1.713,0.152-2.521,0.453c-0.099-0.008-0.188,0.009-0.271,0.051c-0.246,0.121-0.511,0.184-0.785,0.184
		c-0.969,0-1.758-0.788-1.758-1.757v-5.662c0-1.687-0.59-3.33-1.662-4.629c-0.295-0.357-0.627-0.689-0.984-0.986
		c-0.359-0.296-0.75-0.56-1.16-0.783c-2.115-1.148-4.824-1.148-6.938,0c-0.41,0.224-0.802,0.487-1.16,0.784
		c-0.357,0.296-0.688,0.628-0.984,0.985c-1.071,1.299-1.661,2.942-1.661,4.629v5.662c0,0.969-0.788,1.757-1.758,1.757
		c-0.274,0-0.539-0.063-0.784-0.184c-0.076-0.038-0.158-0.05-0.24-0.038c-0.818-0.31-1.68-0.466-2.557-0.466
		c-4.014,0-7.277,3.266-7.277,7.277c0,3.424,2.333,6.342,5.611,7.077l5.128,1.866c0.615,0.224,1.134,0.65,1.471,1.21v2.949
		l-0.008,0.063c-0.521,0.844-1.45,1.365-2.447,1.365l-0.146-0.004c-0.03-0.001-0.063,0-0.091,0.006
		c-0.779-0.253-1.595-0.412-2.384-0.354h-0.104c-0.055-0.004-0.106-0.007-0.161-0.007c-4.015,0-7.278,3.266-7.278,7.277
		c0,3.426,2.333,6.344,5.612,7.077l5.128,1.867c1.047,0.381,1.784,1.351,1.876,2.43l0.001,0.41
		c-0.017,0.332-0.063,0.604-0.154,0.854c-0.412,1.133-1.501,1.896-2.706,1.896l-0.146-0.004c-0.031-0.002-0.063,0-0.092,0.006
		c-0.731-0.239-1.483-0.358-2.237-0.358c-4.015,0-7.277,3.265-7.277,7.276c0,3.377,2.272,6.265,5.544,7.063
		c0.017,0.008,0.032,0.015,0.051,0.021l13.8,4.845v11.655c0,0.276,0.225,0.5,0.5,0.5c0.276,0,0.5-0.224,0.5-0.5V81.971l13.801-4.843
		c0.019-0.006,0.032-0.014,0.049-0.021c3.271-0.799,5.543-3.688,5.543-7.063c0-4.015-3.264-7.276-7.274-7.276
		c-0.752,0-1.503,0.118-2.231,0.356c-0.031-0.004-0.064-0.006-0.098-0.004l-0.146,0.004c-1.207,0-2.295-0.765-2.707-1.896
		c-0.09-0.248-0.141-0.521-0.153-0.828l-0.002-0.394c0.073-0.889,0.563-1.698,1.312-2.182l6.121-2.146
		c0.016-0.007,0.031-0.015,0.049-0.021c3.271-0.801,5.543-3.688,5.543-7.064c0-4.013-3.266-7.278-7.275-7.278
		c-0.046,0-0.092,0.004-0.21,0.007c-0.784-0.053-1.606,0.088-2.392,0.338c-1.176-0.051-2.184-0.782-2.584-1.884
		c-0.091-0.248-0.141-0.519-0.154-0.829l-0.002-0.392C57.563,37.437,58.301,36.466,59.346,36.085z M56.471,38.516v0.457
		c0.021,0.431,0.09,0.807,0.215,1.147c0.555,1.52,1.961,2.518,3.588,2.543c0.057,0.001,0.109-0.009,0.164-0.025
		c0.646-0.214,1.309-0.323,1.967-0.323l0.279,0.015c0.039-0.001,0.078-0.006,0.125-0.013c3.461,0,6.277,2.816,6.277,6.278
		c0,2.946-2.007,5.46-4.878,6.116c-0.053,0.013-0.103,0.033-0.146,0.062l-6.076,2.131c-0.032,0.012-0.064,0.025-0.096,0.045
		c-1.041,0.645-1.727,1.758-1.828,3.02l0.002,0.457c0.02,0.432,0.09,0.807,0.213,1.146c0.554,1.518,2.004,2.541,3.615,2.555
		c0.121,0.059,0.26,0.064,0.387,0.02c0.693-0.25,1.406-0.377,2.121-0.377c3.461,0,6.277,2.816,6.277,6.277
		c0,2.945-2.008,5.459-4.878,6.115c-0.054,0.012-0.103,0.033-0.146,0.063l-13.37,4.691v-6.646l11.985-4.44
		c0.26-0.097,0.392-0.386,0.295-0.644c-0.096-0.26-0.381-0.393-0.644-0.295L50.282,73.2V52.966l12.394-4.594
		c0.258-0.096,0.393-0.384,0.295-0.643c-0.096-0.259-0.381-0.393-0.644-0.295l-12.042,4.465V32.205l12.393-4.594
		c0.26-0.096,0.394-0.384,0.295-0.643c-0.094-0.259-0.381-0.393-0.643-0.295l-12.045,4.464V13.133c0-0.276-0.226-0.5-0.5-0.5
		c-0.275,0-0.5,0.224-0.5,0.5v18.005L37.24,26.674c-0.263-0.098-0.548,0.036-0.645,0.295c-0.096,0.259,0.036,0.547,0.295,0.643
		l12.395,4.594v19.692L37.24,47.436c-0.263-0.097-0.548,0.036-0.645,0.295c-0.096,0.259,0.036,0.547,0.295,0.644l12.395,4.592V73.5
		l-12.45-4.614c-0.262-0.097-0.548,0.036-0.646,0.296c-0.096,0.26,0.036,0.547,0.296,0.644l12.72,4.714
		c0.025,0.01,0.054,0.01,0.08,0.014v6.361l-13.362-4.689c-0.046-0.029-0.099-0.053-0.152-0.063c-2.872-0.656-4.878-3.17-4.878-6.115
		c0-3.461,2.816-6.275,6.278-6.275c0.715,0,1.429,0.127,2.122,0.375c0.108,0.041,0.228,0.021,0.332-0.02c0.008,0,0.016,0,0.021,0
		c1.625,0,3.093-1.025,3.646-2.557c0.124-0.34,0.192-0.715,0.215-1.17l-0.002-0.475c-0.126-1.508-1.12-2.814-2.532-3.328
		l-5.188-1.885c-2.883-0.648-4.896-3.166-4.896-6.12c0-3.457,2.813-6.271,6.36-6.271c0.003,0,0.006,0,0.009,0l0.144,0.007
		c0.008,0,0.166-0.01,0.174-0.011c0.716,0,1.43,0.127,2.122,0.376c0.108,0.041,0.228,0.023,0.332-0.019c0.008,0,0.016,0,0.021,0
		c1.388,0,2.678-0.748,3.366-1.953c0.03-0.056,0.062-0.192,0.068-0.255c0.011-0.073,0.021-0.146,0.021-0.222v-3.084
		c0-0.083-0.021-0.166-0.063-0.24c-0.448-0.824-1.185-1.455-2.064-1.776l-5.188-1.884c-2.882-0.649-4.894-3.166-4.894-6.119
		c0-3.461,2.814-6.277,6.277-6.277c0.818,0,1.621,0.159,2.384,0.473c0.062,0.024,0.127,0.031,0.192,0.026
		c0.318,0.125,0.655,0.188,1.005,0.188c1.521,0,2.757-1.237,2.757-2.757v-5.662c0-1.454,0.51-2.873,1.435-3.993
		c0.255-0.309,0.541-0.596,0.853-0.851c0.311-0.257,0.646-0.483,1.002-0.677c1.82-0.99,4.159-0.99,5.983,0
		c0.354,0.192,0.689,0.42,1,0.676s0.597,0.542,0.852,0.852c0.926,1.12,1.434,2.539,1.434,3.993v5.662
		c0,1.521,1.236,2.757,2.758,2.757c0.34,0,0.666-0.06,0.979-0.179c0.076,0.006,0.147-0.008,0.222-0.037
		c0.76-0.313,1.563-0.473,2.383-0.473c3.461,0,6.276,2.816,6.276,6.277c0,2.953-2.012,5.47-4.952,6.137l-5.129,1.866
		C57.594,35.66,56.598,36.966,56.471,38.516z"/>
</g>
</svg>
