<?xml version="1.0" encoding="utf-8"?>
<!-- Generator: Adobe Illustrator 16.0.0, SVG Export Plug-In . SVG Version: 6.00 Build 0)  -->
<!DOCTYPE svg PUBLIC "-//W3C//DTD SVG 1.1//EN" "http://www.w3.org/Graphics/SVG/1.1/DTD/svg11.dtd">
<svg version="1.1" id="Layer_1" xmlns="http://www.w3.org/2000/svg" xmlns:xlink="http://www.w3.org/1999/xlink" x="0px" y="0px"
	 width="100px" height="100px" viewBox="0 0 100 100" enable-background="new 0 0 100 100" xml:space="preserve">
<g>
	<path d="M83.96,34.497H16.04c-3.646,0-6.61,2.966-6.61,6.611v8.802c0,0.049,0.006,0.095,0.007,0.143
		c-0.001,0.012-0.007,0.023-0.007,0.036v8.804c0,3.646,2.966,6.61,6.61,6.61h67.92c3.646,0,6.61-2.966,6.61-6.61v-8.804
		c0-0.013-0.006-0.022-0.006-0.036c0-0.048,0.006-0.094,0.006-0.143v-8.802C90.57,37.463,87.605,34.497,83.96,34.497z M89.57,58.893
		c0,3.094-2.52,5.609-5.61,5.609H16.04c-3.096,0-5.61-2.518-5.61-5.609v-5.502c1.168,1.875,3.242,3.131,5.61,3.131h67.92
		c2.368,0,4.444-1.256,5.61-3.131V58.893z M89.57,49.91c0,3.095-2.52,5.611-5.61,5.611H16.04c-3.096,0-5.61-2.519-5.61-5.611v-8.802
		c0-3.095,2.52-5.611,5.61-5.611h67.92c3.095,0,5.61,2.517,5.61,5.611V49.91z"/>
	<path d="M84.336,59.766H15.664c-0.275,0-0.5,0.227-0.5,0.5c0,0.276,0.225,0.5,0.5,0.5h68.672c0.275,0,0.5-0.224,0.5-0.5
		C84.836,59.99,84.611,59.766,84.336,59.766z"/>
</g>
</svg>
