<?xml version="1.0" encoding="utf-8"?>
<!-- Generator: Adobe Illustrator 16.0.0, SVG Export Plug-In . SVG Version: 6.00 Build 0)  -->
<!DOCTYPE svg PUBLIC "-//W3C//DTD SVG 1.1//EN" "http://www.w3.org/Graphics/SVG/1.1/DTD/svg11.dtd">
<svg version="1.1" id="Layer_1" xmlns="http://www.w3.org/2000/svg" xmlns:xlink="http://www.w3.org/1999/xlink" x="0px" y="0px"
	 width="100px" height="100px" viewBox="0 0 100 100" enable-background="new 0 0 100 100" xml:space="preserve">
<g>
	<path d="M38.344,45.215c0-3.498-2.846-6.344-6.344-6.344s-6.344,2.846-6.344,6.344s2.846,6.347,6.344,6.347
		S38.344,48.713,38.344,45.215z M32,50.563c-2.947,0-5.344-2.397-5.344-5.345c0-2.947,2.397-5.344,5.344-5.344
		s5.344,2.397,5.344,5.344C37.344,48.165,34.947,50.563,32,50.563z"/>
	<path d="M61.657,45.215c0,3.498,2.846,6.347,6.344,6.347s6.345-2.849,6.345-6.347s-2.847-6.344-6.345-6.344
		S61.657,41.717,61.657,45.215z M73.346,45.215c0,2.947-2.396,5.347-5.346,5.347c-2.945,0-5.344-2.399-5.344-5.347
		c0-2.947,2.396-5.344,5.344-5.344C70.947,39.874,73.346,42.271,73.346,45.215z"/>
	<path d="M50,13.125c-17.696,0-32.093,14.397-32.093,32.093c0,11.189,5.662,21.361,15.162,27.269v8.889
		c0,0.07,0.017,0.141,0.046,0.197c0.314,3.445,8.865,5.303,16.918,5.303c8.205,0,16.928-1.928,16.928-5.5
		c0-0.063-0.013-0.121-0.036-0.176V72.49c9.505-5.906,15.168-16.08,15.168-27.274C82.093,27.521,67.695,13.125,50,13.125z
		 M66.164,71.783c-0.148,0.092-0.239,0.252-0.239,0.428v9.164c0,0.051,0.009,0.104,0.025,0.15c-0.298,2.088-6.75,4.35-15.917,4.35
		c-9.386,0-15.927-2.373-15.927-4.5c0-0.063-0.013-0.123-0.037-0.178v-8.99c0-0.174-0.091-0.336-0.24-0.428
		c-9.344-5.701-14.922-15.631-14.922-26.565c0-17.145,13.948-31.093,31.093-31.093c17.146,0,31.093,13.948,31.093,31.093
		C81.093,56.152,75.514,66.082,66.164,71.783z"/>
	<path d="M60.391,68.613c-0.896,0-1.684,0.408-2.168,1.025c-0.481-0.617-1.271-1.025-2.166-1.025c-0.979,0-1.826,0.488-2.289,1.207
		c-0.49-0.539-1.22-0.891-2.045-0.891c-0.635,0-1.209,0.211-1.667,0.549V57.967h6.206c0.063,0,0.129-0.012,0.189-0.037
		c0.122-0.051,0.22-0.146,0.271-0.271c0.051-0.121,0.051-0.26,0-0.381c-0.023-0.064-0.063-0.117-0.107-0.164l-6.704-6.703
		c-0.046-0.046-0.103-0.083-0.163-0.109c-0.122-0.051-0.26-0.051-0.382,0c-0.063,0.025-0.117,0.063-0.163,0.109l-6.225,6.224
		c-0.195,0.195-0.195,0.514,0,0.707c0.093,0.094,0.214,0.141,0.336,0.145c0.01,0.268,0.226,0.48,0.496,0.48h5.249v11.602
		c-0.475-0.393-1.097-0.639-1.785-0.639c-0.895,0-1.681,0.406-2.167,1.025c-0.484-0.619-1.273-1.025-2.167-1.025
		c-0.93,0-1.749,0.439-2.226,1.102c-0.477-0.662-1.295-1.102-2.226-1.102c-1.471,0-2.667,1.092-2.667,2.436v2.297
		c0,0.002,0,0.002,0,0.004v6.037c0,1.342,1.196,2.439,2.667,2.439c0.93,0,1.749-0.439,2.226-1.105
		c0.477,0.662,1.295,1.105,2.226,1.105c0.894,0,1.683-0.406,2.167-1.025c0.484,0.619,1.272,1.025,2.167,1.025
		c0.931,0,1.75-0.439,2.227-1.105c0.477,0.662,1.296,1.105,2.228,1.105c0.979,0,1.824-0.488,2.289-1.205
		c0.488,0.537,1.219,0.889,2.043,0.889c0.896,0,1.686-0.406,2.168-1.025c0.482,0.619,1.271,1.025,2.166,1.025
		c1.474,0,2.668-1.092,2.668-2.434v-8.344C63.057,69.705,61.859,68.613,60.391,68.613z M50.056,56.967v-4.998l4.999,4.998H50.056z
		 M44.058,56.967l4.998-4.998v4.998H44.058z M60.391,69.613c0.918,0,1.666,0.643,1.666,1.434v2.848
		c-1.095,0.459-2.207,0.85-3.332,1.178v-4.023C58.725,70.256,59.471,69.613,60.391,69.613z M54.391,71.047
		c0-0.791,0.748-1.434,1.666-1.434c0.92,0,1.668,0.643,1.668,1.434v4.305c-1.104,0.279-2.216,0.502-3.334,0.66v-4.646V71.047
		L54.391,71.047z M51.725,69.93c0.918,0,1.666,0.645,1.666,1.436v4.762c-1.106,0.121-2.222,0.188-3.333,0.188v-4.945
		C50.056,70.574,50.805,69.93,51.725,69.93z M47.271,69.93c0.918,0,1.666,0.645,1.666,1.436v4.928
		c-1.114-0.039-2.228-0.141-3.333-0.299v-4.629C45.604,70.574,46.351,69.93,47.271,69.93z M42.937,69.93
		c0.919,0,1.667,0.645,1.667,1.436v4.475c-1.121-0.193-2.234-0.457-3.333-0.775v-3.695C41.27,70.574,42.018,69.93,42.937,69.93z
		 M38.485,69.93c0.919,0,1.667,0.645,1.667,1.436v3.334c-1.13-0.381-2.243-0.822-3.333-1.334v-2
		C36.818,70.574,37.566,69.93,38.485,69.93z M38.485,81.135c-0.919,0-1.667-0.643-1.667-1.434v-5.244
		c1.092,0.494,2.205,0.924,3.333,1.289v3.955C40.152,80.492,39.404,81.135,38.485,81.135z M42.937,81.135
		c-0.919,0-1.667-0.643-1.667-1.434v-3.604c1.1,0.313,2.213,0.563,3.333,0.758v2.848C44.604,80.492,43.856,81.135,42.937,81.135z
		 M47.271,81.135c-0.92,0-1.667-0.643-1.667-1.434V77c1.106,0.154,2.218,0.25,3.333,0.289v2.412
		C48.937,80.492,48.188,81.135,47.271,81.135z M53.391,79.703c0,0.791-0.748,1.434-1.668,1.434c-0.918,0-1.667-0.643-1.667-1.434
		V77.32c1.111-0.002,2.226-0.064,3.333-0.178v2.238v0.316h0.002V79.703z M56.057,80.82c-0.918,0-1.666-0.646-1.666-1.439v-2.367
		c1.118-0.152,2.229-0.365,3.332-0.643v3.01C57.725,80.176,56.975,80.82,56.057,80.82z M60.391,80.82
		c-0.92,0-1.668-0.646-1.668-1.439v-3.271c1.127-0.316,2.237-0.695,3.334-1.145v4.414C62.057,80.176,61.309,80.82,60.391,80.82z"/>
</g>
</svg>
