<?xml version="1.0" encoding="utf-8"?>
<!-- Generator: Adobe Illustrator 16.0.0, SVG Export Plug-In . SVG Version: 6.00 Build 0)  -->
<!DOCTYPE svg PUBLIC "-//W3C//DTD SVG 1.1//EN" "http://www.w3.org/Graphics/SVG/1.1/DTD/svg11.dtd">
<svg version="1.1" id="Layer_1" xmlns="http://www.w3.org/2000/svg" xmlns:xlink="http://www.w3.org/1999/xlink" x="0px" y="0px"
	 width="100px" height="100px" viewBox="0 0 100 100" enable-background="new 0 0 100 100" xml:space="preserve">
<g>
	<path d="M81.014,13.478c-0.313-1.104-1.029-2.257-2.019-3.245c-1.369-1.369-3.011-2.186-4.388-2.186
		c-0.711,0-1.313,0.226-1.74,0.654L50.068,31.499c-0.035,0.036-0.058,0.079-0.081,0.122L37.209,18.803
		c-0.029-0.032-0.044-0.073-0.075-0.104c-0.025-0.025-0.057-0.038-0.086-0.057l-9.913-9.943c-0.001-0.001-0.001-0.001-0.002-0.001
		c-0.428-0.427-1.03-0.653-1.74-0.653c-1.378,0-3.018,0.817-4.387,2.186c-0.988,0.988-1.705,2.141-2.018,3.245
		c-0.341,1.206-0.169,2.23,0.484,2.883l9.854,9.854v40.158c0,0.277,0.224,0.5,0.5,0.5h5.113v5.5c0,0.277,0.225,0.5,0.5,0.5h9.334
		l-0.001,15.834c0,1.822,2.38,3.25,5.417,3.25c3.038,0,5.418-1.428,5.418-3.25V72.871h9c0.272,0,0.5-0.223,0.5-0.5v-5.5h5.063
		c0.275,0,0.5-0.223,0.5-0.5V26.364l9.854-10.007c0.009-0.005,0.011-0.012,0.016-0.018C81.182,15.687,81.352,14.672,81.014,13.478z
		 M70.102,25.521c-0.039,0.006-0.08,0.009-0.117,0.024c-0.063,0.025-0.115,0.062-0.164,0.108c-0.858,0.861-3.021,0.161-4.713-1.532
		c-1.69-1.693-2.396-3.852-1.53-4.714l8.659-8.662c0.104,1.271,0.855,2.776,2.164,4.083c1.274,1.276,2.785,2.063,4.102,2.166
		L70.102,25.521z M78.289,10.939c0.869,0.869,1.495,1.867,1.762,2.81c0.234,0.83,0.15,1.524-0.229,1.904
		c-0.238,0.24-0.588,0.361-1.033,0.361c-1.104,0-2.512-0.726-3.68-1.893c-1.691-1.693-2.396-3.852-1.531-4.714
		c0.238-0.239,0.588-0.361,1.033-0.361C75.711,9.046,77.121,9.771,78.289,10.939z M50.775,32.206l11.461-11.461
		c0.104,1.271,0.854,2.776,2.162,4.083c1.363,1.361,2.938,2.123,4.242,2.175L54.753,41.104c-0.015,0.014-0.021,0.033-0.03,0.049
		c-0.029,0.036-0.058,0.071-0.074,0.113c-0.021,0.046-0.022,0.094-0.027,0.143c-0.002,0.016-0.012,0.03-0.012,0.047v18.749h-8.833
		l0.001-18.749c0-0.065-0.013-0.13-0.039-0.191c-0.024-0.061-0.062-0.117-0.107-0.163l-14.11-14.11
		c1.271-0.105,2.776-0.857,4.082-2.164c1.297-1.297,2.044-2.789,2.159-4.054l13.494,13.534c0.099,0.098,0.228,0.147,0.354,0.147
		s0.257-0.049,0.354-0.146c0.195-0.195,0.195-0.512,0.001-0.707l-1.312-1.314C50.695,32.264,50.738,32.242,50.775,32.206z
		 M36.485,19.496c0.749,0.909,0.053,2.982-1.591,4.626c-1.692,1.693-3.853,2.393-4.713,1.532l-0.001-0.001l-8.66-8.66
		c1.311-0.108,2.812-0.894,4.081-2.164c1.305-1.306,2.057-2.809,2.163-4.08L36.485,19.496z M19.952,13.75
		c0.267-0.943,0.893-1.941,1.762-2.81c1.168-1.168,2.578-1.893,3.68-1.893c0.446,0,0.794,0.122,1.033,0.36l0,0l0.002,0.002
		c0.86,0.863,0.158,3.02-1.533,4.713c-1.168,1.167-2.577,1.893-3.679,1.893c-0.447,0-0.795-0.122-1.035-0.361
		C19.801,15.272,19.717,14.579,19.952,13.75z M30.328,65.871V27.213l14.448,14.449l-0.001,18.542h-9.334c-0.275,0-0.5,0.223-0.5,0.5
		v5.166L30.328,65.871L30.328,65.871z M50.191,90.955c-2.395,0-4.417-1.031-4.417-2.25c0-1.086,1.774-2.25,4.417-2.25
		c2.644,0,4.417,1.164,4.417,2.25C54.607,89.924,52.587,90.955,50.191,90.955z M54.607,86.813c-0.975-0.822-2.567-1.354-4.417-1.354
		c-1.849,0-3.443,0.531-4.417,1.354l0.001-13.938h8.833V86.813z M64.107,71.871H35.941v-5h4.5v1.5c0,0.277,0.225,0.5,0.5,0.5
		c0.276,0,0.5-0.223,0.5-0.5v-3.375c0-0.275-0.224-0.5-0.5-0.5c-0.275,0-0.5,0.225-0.5,0.5v0.875h-4.5v-4.666h19.163
		c0.002,0,0.002,0,0.004,0s0.004,0,0.006,0h8.994v4.666h-3.834v-0.875c0-0.275-0.224-0.5-0.5-0.5c-0.272,0-0.5,0.225-0.5,0.5v3.375
		c0,0.277,0.228,0.5,0.5,0.5c0.276,0,0.5-0.223,0.5-0.5v-1.5h3.834V71.871L64.107,71.871z M69.674,65.871h-4.564v-5.166
		c0-0.277-0.225-0.5-0.5-0.5h-9V41.662L69.674,27.38V65.871z"/>
</g>
</svg>
