<?xml version="1.0" encoding="utf-8"?>
<!-- Generator: Adobe Illustrator 16.0.0, SVG Export Plug-In . SVG Version: 6.00 Build 0)  -->
<!DOCTYPE svg PUBLIC "-//W3C//DTD SVG 1.1//EN" "http://www.w3.org/Graphics/SVG/1.1/DTD/svg11.dtd">
<svg version="1.1" id="Layer_1" xmlns="http://www.w3.org/2000/svg" xmlns:xlink="http://www.w3.org/1999/xlink" x="0px" y="0px"
	 width="100px" height="100px" viewBox="0 0 100 100" enable-background="new 0 0 100 100" xml:space="preserve">
<g>
	<path d="M75.75,27.184h-51.5c-1.379,0-2.5,1.122-2.5,2.5v5.636c0,0.276,0.224,0.5,0.5,0.5h8.838l12.301,13.786
		c-0.318,0.419-0.514,0.938-0.514,1.502v19.209c0,1.377,1.121,2.5,2.5,2.5h9.25c1.379,0,2.5-1.123,2.5-2.5V51.107
		c0-0.416-0.111-0.803-0.291-1.146c0.008-0.008,0.02-0.011,0.025-0.021l12.602-14.123h8.289c0.275,0,0.5-0.224,0.5-0.5v-5.636
		C78.25,28.305,77.129,27.184,75.75,27.184z M54.212,48.605h-2.456l4.11-12.788h4.927L54.212,48.605z M50.706,48.605h-0.863
		l-4.11-12.788h9.083L50.706,48.605z M44.684,35.817l4.11,12.788h-2.457l-6.58-12.788H44.684z M38.633,35.817l6.588,12.805
		c-0.392,0.022-0.757,0.138-1.08,0.321L32.429,35.817H38.633z M56.125,70.316c0,0.826-0.673,1.5-1.5,1.5h-9.25
		c-0.827,0-1.5-0.674-1.5-1.5V51.107c0-0.447,0.201-0.848,0.513-1.123c0.002-0.002,0.005-0.003,0.008-0.005
		c0.001-0.001,0.002-0.003,0.003-0.005c0.263-0.228,0.602-0.37,0.976-0.37h9.25c0.827,0,1.5,0.673,1.5,1.501V70.316z M56.199,49.181
		c-0.266-0.218-0.574-0.38-0.914-0.474l6.632-12.889h6.204L56.199,49.181z M77.25,34.817h-54.5v-5.136c0-0.827,0.673-1.5,1.5-1.5
		h51.5c0.827,0,1.5,0.673,1.5,1.5V34.817z"/>
	<path d="M54.518,52.357c-0.273,0-0.5,0.225-0.5,0.5v14c0,0.273,0.227,0.5,0.5,0.5c0.275,0,0.5-0.227,0.5-0.5v-14
		C55.018,52.582,54.793,52.357,54.518,52.357z"/>
</g>
</svg>
