<?xml version="1.0" encoding="utf-8"?>
<!-- Generator: Adobe Illustrator 16.0.0, SVG Export Plug-In . SVG Version: 6.00 Build 0)  -->
<!DOCTYPE svg PUBLIC "-//W3C//DTD SVG 1.1//EN" "http://www.w3.org/Graphics/SVG/1.1/DTD/svg11.dtd">
<svg version="1.1" id="Layer_1" xmlns="http://www.w3.org/2000/svg" xmlns:xlink="http://www.w3.org/1999/xlink" x="0px" y="0px"
	 width="100px" height="100px" viewBox="0 0 100 100" enable-background="new 0 0 100 100" xml:space="preserve">
<g>
	<path d="M31.392,85.947c0.128,0,0.256-0.049,0.354-0.146l9.052-9.051c0.195-0.193,0.195-0.514,0-0.707l-8.338-8.338l8.703-8.703
		c0.194-0.193,0.194-0.512,0-0.707l-8.305-8.303l8.745-8.745c0.195-0.195,0.195-0.512,0-0.707l-8.337-8.338l8.703-8.703
		c0.195-0.195,0.195-0.512,0-0.707l-8.593-8.593c-0.195-0.195-0.512-0.195-0.707,0c-0.195,0.195-0.195,0.512,0,0.707l8.239,8.239
		l-8.698,8.698c-0.195,0.195-0.195,0.512,0,0.707c0.014,0.014,0.031,0.019,0.046,0.03c0.017,0.024,0.027,0.051,0.048,0.072
		l8.239,8.24l-8.698,8.698c-0.124,0.124-0.16,0.295-0.127,0.454c-0.003,0.132,0.044,0.264,0.144,0.364l8.239,8.243l-8.698,8.695
		c-0.194,0.195-0.194,0.514,0,0.707c0.014,0.016,0.03,0.02,0.045,0.029c0.017,0.023,0.026,0.051,0.049,0.072l8.239,8.238
		l-8.697,8.697c-0.195,0.195-0.195,0.514,0,0.707C31.135,85.9,31.264,85.947,31.392,85.947z"/>
	<path d="M44.888,85.947c0.128,0,0.256-0.049,0.354-0.146l9.052-9.051c0.193-0.193,0.193-0.514,0-0.707l-8.337-8.338l8.703-8.703
		c0.193-0.193,0.193-0.512,0-0.707l-8.305-8.303l8.746-8.745c0.194-0.195,0.194-0.512,0-0.707l-8.337-8.337l8.703-8.703
		c0.195-0.195,0.195-0.512,0-0.707l-8.593-8.592c-0.195-0.195-0.513-0.195-0.707,0c-0.195,0.195-0.195,0.512,0,0.707l8.239,8.239
		l-8.697,8.698c-0.195,0.195-0.195,0.512,0,0.707c0.013,0.013,0.029,0.018,0.044,0.029c0.017,0.024,0.026,0.052,0.049,0.073
		l8.24,8.24l-8.698,8.698c-0.123,0.123-0.159,0.293-0.127,0.452c-0.003,0.132,0.043,0.266,0.144,0.367l8.242,8.242L44.9,67.348
		c-0.194,0.193-0.194,0.514,0,0.707c0.014,0.014,0.03,0.02,0.044,0.027c0.018,0.023,0.027,0.053,0.05,0.072l8.239,8.24l-8.698,8.697
		c-0.195,0.195-0.195,0.512,0,0.707C44.631,85.9,44.759,85.947,44.888,85.947z"/>
	<path d="M58.385,85.947c0.13,0,0.257-0.049,0.354-0.146l9.053-9.051c0.195-0.193,0.195-0.514,0-0.707l-8.338-8.338l8.703-8.703
		c0.195-0.193,0.195-0.512,0-0.707l-8.305-8.303l8.746-8.745c0.192-0.195,0.192-0.512,0-0.707l-8.34-8.338l8.703-8.703
		c0.195-0.195,0.195-0.512,0-0.707l-8.593-8.593c-0.195-0.195-0.515-0.195-0.707,0c-0.195,0.195-0.195,0.512,0,0.707l8.237,8.239
		l-8.696,8.698c-0.195,0.195-0.195,0.512,0,0.707c0.014,0.014,0.028,0.019,0.046,0.03c0.02,0.024,0.025,0.051,0.048,0.072
		l8.239,8.24l-8.698,8.698c-0.124,0.124-0.157,0.295-0.127,0.454c-0.003,0.132,0.044,0.264,0.146,0.364l8.24,8.243l-8.699,8.695
		c-0.194,0.195-0.194,0.514,0,0.707c0.014,0.016,0.029,0.02,0.045,0.029c0.017,0.023,0.024,0.051,0.049,0.072l8.24,8.238
		l-8.698,8.697c-0.195,0.195-0.195,0.514,0,0.707C58.129,85.9,58.257,85.947,58.385,85.947z"/>
</g>
</svg>
