<?xml version="1.0" encoding="utf-8"?>
<!-- Generator: Adobe Illustrator 16.0.0, SVG Export Plug-In . SVG Version: 6.00 Build 0)  -->
<!DOCTYPE svg PUBLIC "-//W3C//DTD SVG 1.1//EN" "http://www.w3.org/Graphics/SVG/1.1/DTD/svg11.dtd">
<svg version="1.1" id="Layer_1" xmlns="http://www.w3.org/2000/svg" xmlns:xlink="http://www.w3.org/1999/xlink" x="0px" y="0px"
	 width="100px" height="200px" viewBox="0 0 100 200" enable-background="new 0 0 100 200" xml:space="preserve">
<g>
	<path d="M31.439,147.998c0.094,0.08,0.209,0.119,0.323,0.119c0.142,0,0.281-0.063,0.381-0.176l3.397-4.008l3.398,4.008
		c0.099,0.113,0.239,0.176,0.381,0.176c0.114,0,0.229-0.039,0.323-0.119c0.211-0.18,0.235-0.494,0.058-0.705l-3.505-4.131
		l3.505-4.129c0.179-0.211,0.153-0.527-0.058-0.705c-0.21-0.178-0.525-0.152-0.704,0.057l-3.398,4.006l-3.397-4.006
		c-0.178-0.209-0.494-0.234-0.704-0.057c-0.211,0.178-0.236,0.494-0.059,0.705l3.506,4.129l-3.506,4.131
		C31.204,147.504,31.229,147.818,31.439,147.998z"/>
	<path d="M31.439,127.613c-0.211,0.18-0.236,0.494-0.059,0.705l3.506,4.129l-3.506,4.131c-0.179,0.211-0.152,0.525,0.059,0.705
		c0.094,0.08,0.209,0.119,0.323,0.119c0.142,0,0.281-0.063,0.381-0.178l3.397-4.007l3.398,4.007
		c0.099,0.114,0.239,0.178,0.381,0.178c0.114,0,0.229-0.039,0.323-0.119c0.211-0.18,0.235-0.494,0.058-0.705l-3.505-4.131
		l3.505-4.129c0.179-0.211,0.153-0.525-0.058-0.705c-0.21-0.18-0.525-0.152-0.704,0.059l-3.398,4.004l-3.397-4.004
		C31.966,127.461,31.649,127.436,31.439,127.613z"/>
	<path d="M62.35,147.998c0.094,0.08,0.209,0.119,0.322,0.119c0.143,0,0.283-0.063,0.381-0.176l3.398-4.008l3.396,4.008
		c0.102,0.113,0.236,0.176,0.381,0.176c0.113,0,0.229-0.039,0.322-0.119c0.211-0.18,0.234-0.494,0.059-0.705l-3.506-4.131
		l3.506-4.129c0.182-0.211,0.152-0.527-0.059-0.705c-0.209-0.178-0.525-0.152-0.703,0.057l-3.396,4.006l-3.398-4.006
		c-0.178-0.209-0.492-0.234-0.703-0.057c-0.211,0.177-0.236,0.494-0.059,0.705l3.506,4.129l-3.506,4.131
		C62.111,147.504,62.139,147.818,62.35,147.998z"/>
	<path d="M62.291,128.318l3.506,4.129l-3.506,4.131c-0.18,0.211-0.152,0.525,0.059,0.705c0.094,0.08,0.209,0.119,0.322,0.119
		c0.143,0,0.283-0.063,0.381-0.178l3.398-4.007l3.396,4.007c0.102,0.114,0.236,0.178,0.381,0.178c0.113,0,0.229-0.039,0.322-0.119
		c0.211-0.18,0.234-0.494,0.059-0.705l-3.506-4.131l3.506-4.129c0.182-0.211,0.152-0.525-0.059-0.705
		c-0.209-0.18-0.525-0.152-0.703,0.059l-3.396,4.004l-3.398-4.004c-0.178-0.209-0.492-0.234-0.703-0.059
		C62.139,127.791,62.111,128.107,62.291,128.318z"/>
	<path d="M96.482,185.506c-0.004-0.025-0.002-0.051-0.01-0.076L58.041,71.25h0.172c0.273,0,0.5-0.224,0.5-0.5s-0.227-0.5-0.5-0.5
		h-0.508L50.5,48.848V30.169V16.801c0-0.069-0.015-0.136-0.041-0.195c-0.003-0.008-0.009-0.013-0.012-0.019
		c-0.026-0.053-0.058-0.103-0.1-0.143c-0.001-0.001-0.002-0.003-0.003-0.004c-1.786-1.703-3.702-2.531-5.856-2.531
		c-2.623,0-5.227,1.241-7.745,2.44c-2.417,1.152-4.917,2.345-7.313,2.345c0,0,0,0-0.001,0c-1.886,0-3.574-0.737-5.166-2.254
		c-0.146-0.14-0.358-0.179-0.542-0.099c-0.185,0.079-0.304,0.259-0.304,0.459v13.369c0,0.137,0.057,0.269,0.155,0.362
		c1.786,1.703,3.702,2.531,5.856,2.531c0.001,0,0.001,0,0.001,0c2.622,0,5.227-1.241,7.744-2.441
		c2.417-1.152,4.917-2.344,7.313-2.344c1.825,0,3.465,0.697,5.012,2.116v18.454L3.526,185.43c-0.009,0.025-0.005,0.051-0.01,0.076
		c-0.005,0.027-0.018,0.055-0.018,0.082c0,0.008,0.004,0.014,0.004,0.02c0.001,0.035,0.013,0.064,0.021,0.101
		c0.008,0.028,0.012,0.063,0.025,0.092c0.012,0.025,0.031,0.05,0.049,0.07c0.02,0.026,0.037,0.062,0.062,0.082
		c0.021,0.021,0.046,0.03,0.07,0.049c0.031,0.021,0.06,0.041,0.095,0.056c0.006,0.002,0.01,0.008,0.017,0.012
		c0.053,0.018,0.105,0.022,0.158,0.022h92c0.055,0,0.104-0.008,0.16-0.022c0.006-0.004,0.01-0.008,0.016-0.012
		c0.035-0.015,0.063-0.033,0.094-0.056c0.023-0.019,0.051-0.026,0.07-0.049c0.021-0.021,0.041-0.054,0.063-0.082
		c0.018-0.021,0.035-0.045,0.051-0.07c0.012-0.026,0.018-0.061,0.023-0.09c0.008-0.033,0.02-0.063,0.021-0.103
		c0-0.006,0.004-0.012,0.004-0.02C96.5,185.561,96.486,185.535,96.482,185.506z M66.803,185.09l-2.701-7.471h28.689l2.514,7.471
		H66.803z M4.695,185.09l2.789-8.287h28.379l-2.997,8.287H4.695z M29.065,112.688h2.641c0.276,0,0.5-0.225,0.5-0.5
		c0-0.274-0.224-0.5-0.5-0.5h-2.304l8.053-23.923h25.089l8.059,23.945c-0.225,0.049-0.396,0.238-0.396,0.479
		c0,0.275,0.227,0.5,0.5,0.5h0.229l21.521,63.933H63.738l-13.373-36.978l6.574-18.178c0.096-0.26-0.041-0.545-0.301-0.639
		c-0.256-0.096-0.545,0.039-0.641,0.299l-6.167,17.049l-6.166-17.049c-0.093-0.26-0.382-0.393-0.64-0.299
		c-0.26,0.094-0.396,0.379-0.3,0.639l6.574,18.178l-13.075,36.158H7.821L29.065,112.688z M38.829,83.688h22.345l1.035,3.074H37.792
		L38.829,83.688z M49.834,141.111l13.093,36.199c0,0.002,0,0.004,0,0.004l2.813,7.772h-31.81L49.834,141.111z M60.836,82.688H39.165
		l3.851-11.439h13.971L60.836,82.688z M43.353,70.25L50,50.496l6.648,19.754H43.353z M44.488,27.276c-2.623,0-5.227,1.24-7.744,2.44
		c-2.417,1.152-4.917,2.344-7.313,2.344h-0.001c-1.824,0-3.467-0.689-5.013-2.108V17.896c1.544,1.208,3.192,1.798,5.012,1.798
		c0.001,0,0.001,0,0.001,0c2.623,0,5.227-1.241,7.744-2.441c2.418-1.152,4.918-2.344,7.313-2.344c1.824,0,3.466,0.689,5.012,2.108
		v12.058C47.957,27.867,46.31,27.276,44.488,27.276z"/>
	<path d="M46.708,112.688h3c0.276,0,0.5-0.225,0.5-0.5c0-0.274-0.224-0.5-0.5-0.5h-3c-0.275,0-0.5,0.226-0.5,0.5
		C46.208,112.463,46.433,112.688,46.708,112.688z"/>
	<path d="M40.708,112.688h3c0.276,0,0.5-0.225,0.5-0.5c0-0.274-0.224-0.5-0.5-0.5h-3c-0.275,0-0.5,0.226-0.5,0.5
		C40.208,112.463,40.433,112.688,40.708,112.688z"/>
	<path d="M52.707,112.688h3c0.273,0,0.5-0.225,0.5-0.5c0-0.274-0.227-0.5-0.5-0.5h-3c-0.275,0-0.5,0.226-0.5,0.5
		C52.207,112.463,52.432,112.688,52.707,112.688z"/>
	<path d="M64.707,112.688h3c0.273,0,0.5-0.225,0.5-0.5c0-0.274-0.227-0.5-0.5-0.5h-3c-0.275,0-0.5,0.226-0.5,0.5
		C64.207,112.463,64.432,112.688,64.707,112.688z"/>
	<path d="M34.708,112.688h3c0.276,0,0.5-0.225,0.5-0.5c0-0.274-0.224-0.5-0.5-0.5h-3c-0.275,0-0.5,0.226-0.5,0.5
		C34.208,112.463,34.433,112.688,34.708,112.688z"/>
	<path d="M58.707,112.688h3c0.273,0,0.5-0.225,0.5-0.5c0-0.274-0.227-0.5-0.5-0.5h-3c-0.275,0-0.5,0.226-0.5,0.5
		C58.207,112.463,58.432,112.688,58.707,112.688z"/>
	<path d="M70.707,115.902h0.586c0.273,0,0.5-0.226,0.5-0.5c0-0.275-0.227-0.5-0.5-0.5h-0.586c-0.275,0-0.5,0.225-0.5,0.5
		C70.207,115.68,70.432,115.902,70.707,115.902z"/>
	<path d="M52.707,115.902h3c0.273,0,0.5-0.226,0.5-0.5c0-0.275-0.227-0.5-0.5-0.5h-3c-0.275,0-0.5,0.225-0.5,0.5
		C52.207,115.68,52.432,115.902,52.707,115.902z"/>
	<path d="M58.707,115.902h3c0.273,0,0.5-0.226,0.5-0.5c0-0.275-0.227-0.5-0.5-0.5h-3c-0.275,0-0.5,0.225-0.5,0.5
		C58.207,115.68,58.432,115.902,58.707,115.902z"/>
	<path d="M64.707,115.902h3c0.273,0,0.5-0.226,0.5-0.5c0-0.275-0.227-0.5-0.5-0.5h-3c-0.275,0-0.5,0.225-0.5,0.5
		C64.207,115.68,64.432,115.902,64.707,115.902z"/>
	<path d="M40.708,115.902h3c0.276,0,0.5-0.226,0.5-0.5c0-0.275-0.224-0.5-0.5-0.5h-3c-0.275,0-0.5,0.225-0.5,0.5
		C40.208,115.68,40.433,115.902,40.708,115.902z"/>
	<path d="M46.708,115.902h3c0.276,0,0.5-0.226,0.5-0.5c0-0.275-0.224-0.5-0.5-0.5h-3c-0.275,0-0.5,0.225-0.5,0.5
		C46.208,115.68,46.433,115.902,46.708,115.902z"/>
	<path d="M34.708,115.902h3c0.276,0,0.5-0.226,0.5-0.5c0-0.275-0.224-0.5-0.5-0.5h-3c-0.275,0-0.5,0.225-0.5,0.5
		C34.208,115.68,34.433,115.902,34.708,115.902z"/>
	<path d="M28.708,115.902h3c0.276,0,0.5-0.226,0.5-0.5c0-0.275-0.224-0.5-0.5-0.5h-3c-0.275,0-0.5,0.225-0.5,0.5
		C28.208,115.68,28.433,115.902,28.708,115.902z"/>
	<path d="M70.23,152.676H62.67c-0.275,0-0.5,0.225-0.5,0.5s0.225,0.5,0.5,0.5h7.561c0.275,0,0.5-0.225,0.5-0.5
		S70.508,152.676,70.23,152.676z"/>
	<path d="M39.321,152.676h-7.559c-0.276,0-0.5,0.225-0.5,0.5s0.224,0.5,0.5,0.5h7.559c0.276,0,0.5-0.225,0.5-0.5
		S39.6,152.676,39.321,152.676z"/>
</g>
</svg>
