<?xml version="1.0" encoding="utf-8"?>
<!-- Generator: Adobe Illustrator 16.0.0, SVG Export Plug-In . SVG Version: 6.00 Build 0)  -->
<!DOCTYPE svg PUBLIC "-//W3C//DTD SVG 1.1//EN" "http://www.w3.org/Graphics/SVG/1.1/DTD/svg11.dtd">
<svg version="1.1" id="Layer_1" xmlns="http://www.w3.org/2000/svg" xmlns:xlink="http://www.w3.org/1999/xlink" x="0px" y="0px"
	 width="200px" height="200px" viewBox="0 0 200 200" enable-background="new 0 0 200 200" xml:space="preserve">
<g>
	<path d="M189.897,76.568v-1.942c0-0.276-0.225-0.5-0.5-0.5h-16.375c-0.271,0-0.5,0.224-0.5,0.5v2.113h-13.164
		c-0.271,0-0.5,0.225-0.5,0.5c0,4.646-3.775,8.428-8.428,8.428H8.813c-1.705,0-2.625,3.005-2.625,5.833s0.92,5.833,2.625,5.833
		h163.707v5.416c0,6.756-5.494,12.25-12.25,12.25c-0.271,0-0.5,0.226-0.5,0.5v9.875c0,0.276,0.229,0.5,0.5,0.5h29.125
		c0.276,0,0.5-0.224,0.5-0.5V97.265c2.232-0.569,3.916-4.908,3.916-10.349C193.813,81.475,192.133,77.138,189.897,76.568z
		 M173.522,75.126h15.375v23.625h-15.375V75.126z M7.188,91.501c0-2.951,0.962-4.833,1.625-4.833s1.625,1.883,1.625,4.833
		s-0.962,4.833-1.625,4.833S7.188,94.451,7.188,91.501z M10.329,96.334c0.729-1.118,1.109-3.011,1.109-4.833
		c0-0.614-0.046-1.235-0.131-1.833h20.438c0.272,0,0.5-0.225,0.5-0.5c0-0.276-0.228-0.5-0.5-0.5H11.122
		c-0.188-0.78-0.451-1.476-0.793-2h140.104c5.028,0,9.142-3.962,9.401-8.928h12.688v3.465h-6.332c-0.273,0-0.5,0.224-0.5,0.5
		c0,0.275,0.227,0.5,0.5,0.5h6.332v8.797h-50.875c-0.273,0-0.5,0.224-0.5,0.5c0,0.275,0.227,0.5,0.5,0.5h50.875v4.333L10.329,96.334
		L10.329,96.334z M173.522,102.751v-3h15.375v22.832h-28.125v-6.592C167.854,115.729,173.522,109.891,173.522,102.751z
		 M160.772,124.876v-1.293h28.125v1.293H160.772z M189.897,96.205V77.63c1.465,0.689,2.916,4.306,2.916,9.287
		C192.813,91.897,191.362,95.515,189.897,96.205z"/>
	<path d="M116.313,88.667H81.647c-0.272,0-0.5,0.224-0.5,0.5c0,0.275,0.228,0.5,0.5,0.5h34.666c0.275,0,0.5-0.225,0.5-0.5
		C116.813,88.891,116.593,88.667,116.313,88.667z"/>
	<path d="M85.313,94.001H55.897c-0.272,0-0.5,0.224-0.5,0.5c0,0.275,0.228,0.5,0.5,0.5h29.416c0.275,0,0.5-0.225,0.5-0.5
		C85.813,94.225,85.593,94.001,85.313,94.001z"/>
	<path d="M58.647,89.667h9c0.275,0,0.5-0.225,0.5-0.5c0-0.276-0.225-0.5-0.5-0.5h-9c-0.272,0-0.5,0.224-0.5,0.5
		C58.147,89.442,58.374,89.667,58.647,89.667z"/>
	<path d="M45.897,89.667h10c0.275,0,0.5-0.225,0.5-0.5c0-0.276-0.225-0.5-0.5-0.5h-10c-0.272,0-0.5,0.224-0.5,0.5
		C45.397,89.442,45.624,89.667,45.897,89.667z"/>
	<path d="M46.015,91.001H27.98c-0.272,0-0.5,0.224-0.5,0.5c0,0.275,0.228,0.5,0.5,0.5h18.031c0.276,0,0.5-0.225,0.5-0.5
		C46.516,91.225,46.292,91.001,46.015,91.001z"/>
</g>
</svg>
