<?xml version="1.0" encoding="utf-8"?>
<!-- Generator: Adobe Illustrator 16.0.0, SVG Export Plug-In . SVG Version: 6.00 Build 0)  -->
<!DOCTYPE svg PUBLIC "-//W3C//DTD SVG 1.1//EN" "http://www.w3.org/Graphics/SVG/1.1/DTD/svg11.dtd">
<svg version="1.1" id="Layer_1" xmlns="http://www.w3.org/2000/svg" xmlns:xlink="http://www.w3.org/1999/xlink" x="0px" y="0px"
	 width="100px" height="100px" viewBox="0 0 100 100" enable-background="new 0 0 100 100" xml:space="preserve">
<g>
	<path d="M26.792,76.708h20.5h5.417h20.5c0.275,0,0.5-0.226,0.5-0.5V63.166v-5.417V44.708c0-0.063-0.016-0.122-0.037-0.178
		c-0.002-0.004,0-0.008-0.002-0.012v-0.003c0-0.001-0.002-0.002-0.002-0.003l-1.998-4.869c-0.076-0.188-0.26-0.31-0.461-0.31H55.666
		v-2.354c0.344-0.202,0.572-0.447,0.646-0.741c0.025-0.06,0.041-0.127,0.041-0.197v-3.454c0.85-0.44,1.375-0.997,1.375-1.67
		c0-0.048-0.016-0.091-0.027-0.135c0.014-0.044,0.027-0.087,0.027-0.135v-4.48c0-1.888-4.074-2.875-8.101-2.875
		c-4.026,0-8.1,0.988-8.1,2.875v3.016c-2.713,0.042-4.91,2.255-4.91,4.978c0,2.749,2.237,4.986,4.986,4.986h1.987v0.188h-14.8
		c-0.203,0-0.386,0.123-0.462,0.31l-1.998,4.869c0,0.001-0.001,0.002-0.001,0.003l-0.001,0.003c-0.002,0.004,0,0.008-0.002,0.012
		c-0.021,0.055-0.036,0.115-0.036,0.178v31.5C26.292,76.482,26.516,76.708,26.792,76.708z M53.209,62.666v-4.417h19.5v4.417H53.209z
		 M72.709,57.249h-19.5V45.208h19.5V57.249z M49.628,41.395c-0.739,0-1.399-0.021-1.983-0.054c-0.035-0.01-0.066-0.026-0.104-0.029
		c-0.043-0.004-0.083,0.007-0.124,0.014c-0.904-0.059-1.613-0.15-2.105-0.243c0.84-0.16,2.293-0.312,4.316-0.312
		c2.022,0,3.477,0.152,4.317,0.312C53.105,41.243,51.65,41.395,49.628,41.395z M49.628,42.395c0.839,0,1.571-0.024,2.237-0.062
		l0.268,1.875H47.83l0.137-1.846C48.479,42.382,49.024,42.395,49.628,42.395z M46.792,62.666h-19.5v-4.417h19.5V62.666z
		 M46.792,57.249h-19.5V45.208h19.5V57.249z M27.292,63.666h19.5v12.042h-19.5V63.666z M47.792,63.166v-5.417V45.208h4.417v12.541
		v5.417v12.542h-4.417V63.166z M72.709,75.708h-19.5V63.666h19.5V75.708z M70.873,40.333l1.59,3.875h-19.32l-0.279-1.955
		c1.566-0.163,2.484-0.468,2.727-0.917c0.045-0.075,0.08-0.159,0.08-0.253v-0.75H70.873z M54.666,40.244
		c-0.973-0.313-2.645-0.474-5.038-0.474c-2.394,0-4.066,0.161-5.038,0.474V37.39c1.841,0.541,4.586,0.568,5.038,0.568
		s3.196-0.027,5.038-0.568V40.244z M55.354,35.989c-0.248,0.353-2.334,0.969-5.724,0.969c-2.562,0-4.38-0.351-5.219-0.649
		c-0.073-0.062-0.164-0.1-0.264-0.112c-0.12-0.057-0.211-0.111-0.242-0.156v-3.037c1.539,0.52,3.636,0.788,5.725,0.788
		c2.087,0,4.185-0.268,5.724-0.788V35.989z M55.67,31.815c-0.006,0.003-0.014,0.005-0.02,0.009
		c-1.137,0.507-3.158,0.969-6.021,0.969c-4.662,0-7.1-1.221-7.1-1.875v-3.295c1.453,0.935,4.286,1.42,7.1,1.42
		s5.646-0.484,7.101-1.42v3.024c0,0.048,0.016,0.091,0.027,0.135c-0.014,0.044-0.027,0.087-0.027,0.135
		C56.729,31.166,56.369,31.499,55.67,31.815z M49.628,24.29c4.663,0,7.1,1.221,7.1,1.875c0,0.654-2.438,1.875-7.1,1.875
		c-4.663,0-7.1-1.221-7.1-1.875C42.528,25.511,44.966,24.29,49.628,24.29z M41.604,38.145c-2.198,0-3.986-1.788-3.986-3.986
		c0-2.172,1.748-3.937,3.91-3.978v0.735c0,0.676,0.529,1.235,1.386,1.676c-0.002,0.018-0.011,0.034-0.011,0.053v3.396
		c0,0.07,0.015,0.136,0.041,0.197c0.074,0.294,0.304,0.539,0.647,0.742v1.166L41.604,38.145L41.604,38.145z M29.127,40.333H43.59
		v0.75c0,0.094,0.033,0.178,0.078,0.253c0.269,0.503,1.366,0.831,3.297,0.974l-0.139,1.898h-19.29L29.127,40.333z"/>
	<path d="M57.229,47.708h9.584c0.275,0,0.5-0.224,0.5-0.5s-0.225-0.5-0.5-0.5h-9.584c-0.273,0-0.5,0.224-0.5,0.5
		S56.951,47.708,57.229,47.708z"/>
	<path d="M68.146,47.708h1.332c0.275,0,0.5-0.224,0.5-0.5s-0.225-0.5-0.5-0.5h-1.332c-0.277,0-0.5,0.224-0.5,0.5
		S67.869,47.708,68.146,47.708z"/>
</g>
</svg>
