<?xml version="1.0" encoding="utf-8"?>
<!-- Generator: Adobe Illustrator 16.0.0, SVG Export Plug-In . SVG Version: 6.00 Build 0)  -->
<!DOCTYPE svg PUBLIC "-//W3C//DTD SVG 1.1//EN" "http://www.w3.org/Graphics/SVG/1.1/DTD/svg11.dtd">
<svg version="1.1" id="Layer_1" xmlns="http://www.w3.org/2000/svg" xmlns:xlink="http://www.w3.org/1999/xlink" x="0px" y="0px"
	 width="100px" height="100px" viewBox="0 0 100 100" enable-background="new 0 0 100 100" xml:space="preserve">
<g>
	<path d="M50,19.875c5.339,0,11.083-0.965,11.083-3.083c0-2.117-5.744-3.083-11.083-3.083c-5.338,0-11.083,0.966-11.083,3.083
		C38.917,18.91,44.665,19.875,50,19.875z M50,14.708c6.523,0,10.083,1.376,10.083,2.083S56.523,18.874,50,18.874
		c-6.524,0-10.083-1.376-10.083-2.083S43.479,14.708,50,14.708z"/>
	<path d="M50,88.691c3.007,0,6.068-0.17,8.89-0.502c0.002,0,0.004,0.002,0.004,0.002c0.006,0,0.01-0.004,0.016-0.004
		c6.684-0.785,12.006-2.478,12.006-4.979V16.791c0-3.563-10.777-5.482-20.917-5.482c-10.14,0-20.916,1.922-20.916,5.482v66.417
		C29.084,86.771,39.86,88.691,50,88.691z M59.396,87.13V38.541c0-0.274-0.225-0.5-0.5-0.5s-0.5,0.226-0.5,0.5v48.708
		c-2.502,0.276-5.324,0.44-8.396,0.44c-11.736,0-19.916-2.361-19.916-4.482V18.564c2.894,2.421,11.616,3.709,19.916,3.709
		c0.636,0,1.277-0.008,1.917-0.022v33.476c0,0.274,0.223,0.5,0.5,0.5c0.271,0,0.5-0.226,0.5-0.5V22.224
		c1.867-0.066,3.721-0.198,5.482-0.394c0,0.018-0.008,0.028-0.008,0.045v6.826c0,0.275,0.229,0.5,0.5,0.5c0.275,0,0.5-0.225,0.5-0.5
		v-6.826c0-0.057-0.016-0.105-0.033-0.156c4.766-0.595,8.771-1.657,10.559-3.151V83.21C69.918,84.698,65.869,86.305,59.396,87.13z
		 M50,12.309c11.736,0,19.917,2.361,19.917,4.482S61.736,21.273,50,21.273s-19.916-2.362-19.916-4.482S38.266,12.309,50,12.309z"/>
	<path d="M63.418,34.875c-0.277,0-0.5,0.226-0.5,0.5v21.5c0,0.275,0.223,0.5,0.5,0.5c0.275,0,0.5-0.225,0.5-0.5v-21.5
		C63.918,35.101,63.693,34.875,63.418,34.875z"/>
	<path d="M67.084,26.732c-0.275,0-0.5,0.225-0.5,0.5v8.143c0,0.275,0.225,0.5,0.5,0.5s0.5-0.225,0.5-0.5v-8.143
		C67.584,26.956,67.359,26.732,67.084,26.732z"/>
	<path d="M47.25,17.291h5.167c0.271,0,0.5-0.225,0.5-0.5c0-0.274-0.229-0.5-0.5-0.5H47.25c-0.276,0-0.5,0.226-0.5,0.5
		C46.75,17.066,46.976,17.291,47.25,17.291z"/>
	<path d="M66.084,69.359c-0.275,0-0.5,0.224-0.5,0.5v8.016c0,0.275,0.225,0.5,0.5,0.5s0.5-0.225,0.5-0.5v-8.016
		C66.584,69.582,66.359,69.359,66.084,69.359z"/>
	<path d="M47.25,52.625c-0.276,0-0.5,0.225-0.5,0.5v30.083c0,0.276,0.224,0.5,0.5,0.5s0.5-0.224,0.5-0.5V53.125
		C47.75,52.85,47.526,52.625,47.25,52.625z"/>
	<path d="M39.417,76.708c-0.276,0-0.5,0.226-0.5,0.5v3.5c0,0.276,0.224,0.5,0.5,0.5s0.5-0.224,0.5-0.5v-3.5
		C39.917,76.934,39.693,76.708,39.417,76.708z"/>
	<path d="M36.25,43.875c-0.276,0-0.5,0.226-0.5,0.5v34.5c0,0.275,0.224,0.5,0.5,0.5s0.5-0.225,0.5-0.5v-34.5
		C36.75,44.101,36.526,43.875,36.25,43.875z"/>
	<path d="M36.25,36.541c-0.276,0-0.5,0.226-0.5,0.5v4.833c0,0.275,0.224,0.5,0.5,0.5s0.5-0.225,0.5-0.5v-4.833
		C36.75,36.767,36.526,36.541,36.25,36.541z"/>
	<path d="M36.917,29.875c-0.276,0-0.5,0.226-0.5,0.5v3.833c0,0.275,0.224,0.5,0.5,0.5s0.5-0.225,0.5-0.5v-3.833
		C37.417,30.101,37.193,29.875,36.917,29.875z"/>
	<path d="M32.25,35.75c-0.276,0-0.5,0.226-0.5,0.5v29.125c0,0.275,0.224,0.5,0.5,0.5s0.5-0.225,0.5-0.5V36.25
		C32.75,35.976,32.526,35.75,32.25,35.75z"/>
	<path d="M39.417,39.041c-0.276,0-0.5,0.226-0.5,0.5v18.5c0,0.275,0.224,0.5,0.5,0.5s0.5-0.225,0.5-0.5v-18.5
		C39.917,39.267,39.693,39.041,39.417,39.041z"/>
</g>
</svg>
