<?xml version="1.0" encoding="utf-8"?>
<!-- Generator: Adobe Illustrator 16.0.0, SVG Export Plug-In . SVG Version: 6.00 Build 0)  -->
<!DOCTYPE svg PUBLIC "-//W3C//DTD SVG 1.1//EN" "http://www.w3.org/Graphics/SVG/1.1/DTD/svg11.dtd">
<svg version="1.1" id="Layer_1" xmlns="http://www.w3.org/2000/svg" xmlns:xlink="http://www.w3.org/1999/xlink" x="0px" y="0px"
	 width="100px" height="100px" viewBox="0 0 100 100" enable-background="new 0 0 100 100" xml:space="preserve">
<g>
	<path d="M58.77,56.633c-0.274,0-0.5,0.227-0.5,0.5v10.631c0,0.274,0.226,0.5,0.5,0.5s0.5-0.226,0.5-0.5V57.133
		C59.27,56.854,59.045,56.633,58.77,56.633z"/>
	<path d="M73.891,22.283L53.982,42.189v-3.277c0-0.276-0.227-0.5-0.5-0.5c-0.275,0-0.5,0.224-0.5,0.5v4.146
		c-0.603-0.098-1.211-0.162-1.84-0.162c-0.627,0-1.241,0.064-1.838,0.162v-4.146c0-0.276-0.224-0.5-0.5-0.5
		c-0.276,0-0.5,0.224-0.5,0.5v3.277L26.107,19.994c-0.195-0.195-0.512-0.195-0.707,0c-0.195,0.195-0.195,0.512,0,0.707
		l22.638,22.638c-3.56,1.009-6.409,3.701-7.642,7.162h-3.763v-6.421c0-0.276-0.224-0.5-0.5-0.5c-0.276,0-0.5,0.224-0.5,0.5v6.919
		c0,0.273,0.224,0.5,0.5,0.5h3.959c-0.23,0.9-0.365,1.841-0.365,2.813v6.713H30.48c-0.276,0-0.5,0.226-0.5,0.5s0.224,0.5,0.5,0.5
		h9.247v6.713c0,0.695,0.072,1.373,0.192,2.035h-3.786c-0.276,0-0.5,0.226-0.5,0.5v8.381c0,0.275,0.224,0.5,0.5,0.5
		c0.276,0,0.5-0.225,0.5-0.5v-7.881h3.516c1.334,4.822,5.751,8.381,10.996,8.381c5.252,0,9.674-3.566,11-8.402
		c0.037,0.009,0.07,0.021,0.11,0.021h3.597v7.881c0,0.275,0.225,0.5,0.5,0.5c0.273,0,0.5-0.225,0.5-0.5v-8.381
		c0-0.274-0.227-0.5-0.5-0.5H62.37c0.12-0.662,0.192-1.34,0.192-2.035v-6.713h9.438c0.272,0,0.5-0.226,0.5-0.5s-0.228-0.5-0.5-0.5
		h-9.438v-6.713c0-0.973-0.139-1.912-0.365-2.813h4.154c0.272,0,0.5-0.227,0.5-0.5v-6.919c0-0.276-0.228-0.5-0.5-0.5
		c-0.276,0-0.5,0.224-0.5,0.5V50.5h-3.789c-0.06,0-0.107,0.014-0.158,0.031c-1.225-3.476-4.082-6.181-7.652-7.193L74.6,22.991
		c0.195-0.195,0.195-0.512,0-0.707C74.402,22.086,74.086,22.086,73.891,22.283z M40.728,68.734V54.813h9.917v16.226l-6.195,5.12
		c-0.12,0.099-0.175,0.24-0.175,0.387C42.104,74.634,40.728,71.848,40.728,68.734z M50.645,79.128
		c-2.167-0.104-4.159-0.868-5.783-2.104c0.079-0.017,0.156-0.043,0.221-0.099l5.562-4.594V79.128z M51.645,72.227l6.317,4.366
		c-1.711,1.487-3.905,2.421-6.317,2.535V72.227z M58.699,75.886l-7.057-4.877V54.813h9.916v13.924
		C61.561,71.506,60.467,74.021,58.699,75.886z M61.535,53.813H40.753c0.263-5.509,4.816-9.915,10.394-9.915
		C56.721,43.896,61.271,48.301,61.535,53.813z"/>
</g>
</svg>
