<?xml version="1.0" encoding="utf-8"?>
<!-- Generator: Adobe Illustrator 16.0.0, SVG Export Plug-In . SVG Version: 6.00 Build 0)  -->
<!DOCTYPE svg PUBLIC "-//W3C//DTD SVG 1.1//EN" "http://www.w3.org/Graphics/SVG/1.1/DTD/svg11.dtd">
<svg version="1.1" id="Layer_1" xmlns="http://www.w3.org/2000/svg" xmlns:xlink="http://www.w3.org/1999/xlink" x="0px" y="0px"
	 width="100px" height="100px" viewBox="0 0 100 100" enable-background="new 0 0 100 100" xml:space="preserve">
<g>
	<path d="M45.787,63.622v13.774c0,0.276,0.224,0.5,0.5,0.5h7.371c0.275,0,0.5-0.224,0.5-0.5V63.688
		c0.064-0.146,0.063-0.316-0.023-0.455c-2.256-3.66-1.135-7.297,0.053-11.147c1.199-3.895,2.44-7.92-0.053-11.965
		c-1.836-2.979-1.394-6.02-0.619-8.87c0.396-0.357,0.734-0.755,0.994-1.189c0.495-0.83,0.758-1.76,0.758-2.688
		c0-0.486-0.084-0.996-0.258-1.554c-0.688-2.222-2.703-3.715-5.011-3.715c-0.933,0-1.831,0.251-2.668,0.748
		c-1.628,0.963-2.6,2.652-2.6,4.521c0,0.898,0.247,1.778,0.696,2.569c-1.022,3.442-1.787,7.098,0.436,10.702
		c2.256,3.658,1.135,7.296-0.052,11.146C44.622,55.643,43.401,59.622,45.787,63.622z M46.787,63.992h2.686v12.904h-2.686V63.992z
		 M53.158,76.896h-2.685V63.992h2.685V76.896z M47.838,23.711c0.682-0.401,1.409-0.606,2.16-0.606c1.868,0,3.498,1.21,4.057,3.013
		c0.146,0.467,0.211,0.865,0.211,1.257c0,0.759-0.207,1.488-0.615,2.175c-0.231,0.393-0.541,0.751-0.912,1.068
		c-1.406,1.207-3.472,1.346-5.034,0.345c-0.521-0.334-0.977-0.797-1.317-1.339c-0.429-0.683-0.656-1.46-0.656-2.25
		C45.729,25.86,46.518,24.492,47.838,23.711z M46.713,40.118c-1.862-3.021-1.413-6.057-0.545-9.148
		c0.015,0.017,0.033,0.029,0.048,0.047c0.097,0.102,0.199,0.192,0.303,0.286c0.05,0.046,0.098,0.094,0.15,0.137
		c0.159,0.131,0.323,0.254,0.495,0.363c0.197,0.127,0.402,0.236,0.612,0.335c0.166,0.077,0.337,0.14,0.509,0.198
		c0.037,0.015,0.072,0.029,0.109,0.041c0.518,0.17,1.058,0.266,1.605,0.266c0.09,0,0.178-0.021,0.268-0.023
		c0.093-0.006,0.185-0.017,0.278-0.023c0.165-0.02,0.33-0.033,0.492-0.067c0.23-0.046,0.459-0.109,0.682-0.188
		c0.079-0.027,0.155-0.063,0.232-0.095c0.105-0.042,0.212-0.078,0.314-0.128c-0.627,2.739-0.771,5.63,1.019,8.528
		c2.256,3.659,1.135,7.296-0.052,11.146c-1.125,3.648-2.287,7.415-0.375,11.203H46.57c-2.065-3.579-0.967-7.145,0.194-10.909
		C47.965,48.189,49.206,44.163,46.713,40.118z"/>
</g>
</svg>
