<?xml version="1.0" encoding="utf-8"?>
<!-- Generator: Adobe Illustrator 16.0.0, SVG Export Plug-In . SVG Version: 6.00 Build 0)  -->
<!DOCTYPE svg PUBLIC "-//W3C//DTD SVG 1.1//EN" "http://www.w3.org/Graphics/SVG/1.1/DTD/svg11.dtd">
<svg version="1.1" id="Layer_1" xmlns="http://www.w3.org/2000/svg" xmlns:xlink="http://www.w3.org/1999/xlink" x="0px" y="0px"
	 width="100px" height="100px" viewBox="0 0 100 100" enable-background="new 0 0 100 100" xml:space="preserve">
<g>
	<path d="M29.118,14.629c-4.042,0-7.207,1.868-7.207,4.251v22.281c0,0.001,0,0.001,0,0.002v39.956c0,2.383,3.166,4.25,7.207,4.25
		s7.207-1.867,7.207-4.25V39.742c0-0.001,0-0.001,0-0.002V18.881C36.324,16.498,33.159,14.629,29.118,14.629z M29.118,15.629
		c3.364,0,6.207,1.489,6.207,3.251c0,1.762-2.842,3.251-6.207,3.251c-3.365,0-6.207-1.489-6.207-3.251
		C22.911,17.119,25.75,15.629,29.118,15.629z M29.118,84.371c-3.365,0-6.207-1.488-6.207-3.25V39.743c0-0.001,0-0.002,0-0.002
		V21.063c1.243,1.247,3.529,2.069,6.207,2.069c0.889,0,1.732-0.095,2.512-0.261v20.167c0,0.276,0.224,0.5,0.5,0.5s0.5-0.224,0.5-0.5
		V22.632c0-0.008-0.004-0.014-0.004-0.022c1.124-0.362,2.051-0.897,2.699-1.547v20.098c0,0.001,0,0.002,0,0.002v39.956
		C35.324,82.883,32.479,84.371,29.118,84.371z"/>
	<path d="M29.118,42.538c-0.276,0-0.5,0.224-0.5,0.5v25.417c0,0.275,0.224,0.5,0.5,0.5c0.276,0,0.5-0.225,0.5-0.5V43.038
		C29.618,42.761,29.394,42.538,29.118,42.538z"/>
	<path d="M32.127,65.16c-0.276,0-0.5,0.223-0.5,0.5v11.896c0,0.273,0.224,0.5,0.5,0.5s0.5-0.227,0.5-0.5V65.66
		C32.627,65.383,32.403,65.16,32.127,65.16z"/>
	<path d="M32.127,56.859c-0.276,0-0.5,0.225-0.5,0.5v3.07c0,0.273,0.224,0.5,0.5,0.5s0.5-0.227,0.5-0.5v-3.07
		C32.627,57.084,32.403,56.859,32.127,56.859z"/>
	<path d="M29.118,21.144c2.358,0,4.137-0.972,4.137-2.262s-1.779-2.262-4.137-2.262c-2.359,0-4.138,0.973-4.138,2.262
		S26.756,21.144,29.118,21.144z M29.118,17.62c1.915,0,3.137,0.748,3.137,1.262c0,0.514-1.222,1.262-3.137,1.262
		c-1.916,0-3.138-0.747-3.138-1.262C25.979,18.367,27.202,17.62,29.118,17.62z"/>
	<path d="M28.094,19.381h1.933c0.276,0,0.5-0.224,0.5-0.5c0-0.276-0.224-0.5-0.5-0.5h-1.933c-0.276,0-0.5,0.224-0.5,0.5
		C27.594,19.158,27.815,19.381,28.094,19.381z"/>
	<path d="M49.682,14.629c-4.042,0-7.207,1.868-7.207,4.251v22.281c0,0.002,0.001,0.003,0.001,0.005l-0.001,39.953
		c0,2.385,3.166,4.252,7.207,4.252s7.207-1.869,7.207-4.252V39.742c0-0.001,0-0.001,0-0.002V18.881
		C56.889,16.498,53.725,14.629,49.682,14.629z M49.682,15.629c3.365,0,6.207,1.489,6.207,3.251c0,1.762-2.842,3.251-6.207,3.251
		s-6.207-1.489-6.207-3.251C43.475,17.119,46.314,15.629,49.682,15.629z M49.682,84.371c-3.365,0-6.207-1.488-6.207-3.25
		l0.001-41.378c0-0.002-0.001-0.003-0.001-0.005V21.063c1.243,1.247,3.529,2.069,6.207,2.069c0.889,0,1.732-0.095,2.514-0.262
		v20.167c0,0.276,0.223,0.5,0.5,0.5c0.275,0,0.5-0.224,0.5-0.5V22.632c0-0.008-0.004-0.014-0.004-0.022
		c1.123-0.362,2.051-0.897,2.699-1.547v20.098c0,0.001,0,0.002,0,0.002v39.956C55.889,82.883,53.047,84.371,49.682,84.371z"/>
	<path d="M49.682,42.538c-0.276,0-0.5,0.224-0.5,0.5v25.417c0,0.275,0.224,0.5,0.5,0.5c0.276,0,0.5-0.225,0.5-0.5V43.038
		C50.182,42.761,49.958,42.538,49.682,42.538z"/>
	<path d="M52.695,65.16c-0.277,0-0.5,0.223-0.5,0.5v11.896c0,0.273,0.223,0.5,0.5,0.5c0.275,0,0.5-0.227,0.5-0.5V65.66
		C53.195,65.383,52.971,65.16,52.695,65.16z"/>
	<path d="M52.695,56.859c-0.277,0-0.5,0.225-0.5,0.5v3.07c0,0.273,0.223,0.5,0.5,0.5c0.275,0,0.5-0.227,0.5-0.5v-3.07
		C53.195,57.084,52.971,56.859,52.695,56.859z"/>
	<path d="M49.682,21.144c2.359,0,4.139-0.972,4.139-2.262s-1.779-2.262-4.139-2.262c-2.359,0-4.138,0.973-4.138,2.262
		S47.323,21.144,49.682,21.144z M49.682,17.62c1.916,0,3.139,0.748,3.139,1.262c0,0.514-1.223,1.262-3.139,1.262
		s-3.138-0.747-3.138-1.262C46.542,18.367,47.767,17.62,49.682,17.62z"/>
	<path d="M48.659,19.381h1.933c0.275,0,0.5-0.224,0.5-0.5c0-0.276-0.225-0.5-0.5-0.5h-1.933c-0.276,0-0.5,0.224-0.5,0.5
		C48.159,19.158,48.38,19.381,48.659,19.381z"/>
	<path d="M70.883,14.629c-4.043,0-7.207,1.868-7.207,4.251v22.281c0,0.001,0,0.001,0,0.002v39.956c0,2.383,3.166,4.25,7.207,4.25
		s7.207-1.867,7.207-4.25V39.742c0-0.002-0.002-0.003-0.002-0.005l0.002-20.855C78.09,16.498,74.924,14.629,70.883,14.629z
		 M70.883,15.629c3.365,0,6.207,1.489,6.207,3.251c0,1.762-2.842,3.251-6.207,3.251s-6.207-1.489-6.207-3.251
		C64.676,17.119,67.52,15.629,70.883,15.629z M70.883,84.371c-3.365,0-6.207-1.488-6.207-3.25V39.743c0-0.001,0-0.002,0-0.002
		V21.063c1.242,1.247,3.529,2.069,6.207,2.069c0.889,0,1.732-0.095,2.512-0.261v20.167c0,0.276,0.225,0.5,0.5,0.5s0.5-0.224,0.5-0.5
		V22.632c0-0.008-0.004-0.014-0.004-0.022c1.125-0.362,2.053-0.897,2.699-1.547l-0.002,20.098c0,0.002,0.002,0.003,0.002,0.005
		v39.953C77.09,82.883,74.248,84.371,70.883,84.371z"/>
	<path d="M70.883,42.538c-0.275,0-0.5,0.224-0.5,0.5v25.417c0,0.275,0.225,0.5,0.5,0.5s0.5-0.225,0.5-0.5V43.038
		C71.383,42.761,71.16,42.538,70.883,42.538z"/>
	<path d="M73.896,65.16c-0.277,0-0.5,0.223-0.5,0.5v11.896c0,0.273,0.223,0.5,0.5,0.5c0.27,0,0.5-0.227,0.5-0.5V65.66
		C74.396,65.383,74.172,65.16,73.896,65.16z"/>
	<path d="M73.896,56.859c-0.277,0-0.5,0.225-0.5,0.5v3.07c0,0.273,0.223,0.5,0.5,0.5c0.27,0,0.5-0.227,0.5-0.5v-3.07
		C74.396,57.084,74.172,56.859,73.896,56.859z"/>
	<path d="M70.883,21.144c2.359,0,4.139-0.972,4.139-2.262s-1.779-2.262-4.139-2.262s-4.139,0.973-4.139,2.262
		S68.523,21.144,70.883,21.144z M70.883,17.62c1.916,0,3.139,0.748,3.139,1.262c0,0.514-1.223,1.262-3.139,1.262
		s-3.139-0.747-3.139-1.262C67.744,18.367,68.967,17.62,70.883,17.62z"/>
	<path d="M69.859,19.381h1.934c0.275,0,0.5-0.224,0.5-0.5c0-0.276-0.225-0.5-0.5-0.5h-1.934c-0.275,0-0.5,0.224-0.5,0.5
		C69.359,19.158,69.582,19.381,69.859,19.381z"/>
</g>
</svg>
