<?xml version="1.0" encoding="utf-8"?>
<!-- Generator: Adobe Illustrator 16.0.0, SVG Export Plug-In . SVG Version: 6.00 Build 0)  -->
<!DOCTYPE svg PUBLIC "-//W3C//DTD SVG 1.1//EN" "http://www.w3.org/Graphics/SVG/1.1/DTD/svg11.dtd">
<svg version="1.1" id="Layer_1" xmlns="http://www.w3.org/2000/svg" xmlns:xlink="http://www.w3.org/1999/xlink" x="0px" y="0px"
	 width="100px" height="100px" viewBox="0 0 100 100" enable-background="new 0 0 100 100" xml:space="preserve">
<g>
	<path d="M49.638,31.908c-0.563,0.589-13.803,14.507-13.803,22.167c0,7.812,6.354,14.165,14.165,14.165
		c7.813,0,14.165-6.354,14.165-14.165c0-7.66-13.24-21.578-13.803-22.167C50.172,31.71,49.826,31.71,49.638,31.908z M49.999,67.239
		c-7.259,0-13.165-5.906-13.165-13.165c0-6.584,11.012-18.771,13.165-21.09c2.151,2.317,13.165,14.506,13.165,21.09
		C63.164,61.333,57.258,67.239,49.999,67.239z"/>
</g>
</svg>
