<?xml version="1.0" encoding="utf-8"?>
<!-- Generator: Adobe Illustrator 16.0.0, SVG Export Plug-In . SVG Version: 6.00 Build 0)  -->
<!DOCTYPE svg PUBLIC "-//W3C//DTD SVG 1.1//EN" "http://www.w3.org/Graphics/SVG/1.1/DTD/svg11.dtd">
<svg version="1.1" id="Layer_1" xmlns="http://www.w3.org/2000/svg" xmlns:xlink="http://www.w3.org/1999/xlink" x="0px" y="0px"
	 width="100px" height="100px" viewBox="0 0 100 100" enable-background="new 0 0 100 100" xml:space="preserve">
<g>
	<path d="M31.105,56.855c0.128,0,0.256-0.049,0.354-0.146l4.19-4.19v7.854c0,7.527,6.125,13.652,13.654,13.652
		c7.528,0,13.654-6.127,13.654-13.653v-20.56c3.589-0.258,6.433-3.253,6.433-6.906c0-3.822-3.108-6.932-6.933-6.932
		c-3.821,0-6.933,3.107-6.933,6.932c0,3.654,2.844,6.648,6.433,6.906v20.562c0,6.978-5.676,12.653-12.653,12.653
		s-12.654-5.676-12.654-12.653v-7.853l3.799,3.797c0.098,0.098,0.226,0.146,0.354,0.146s0.256-0.049,0.354-0.146
		c0.193-0.195,0.193-0.512,0-0.707l-4.65-4.65c-0.046-0.046-0.104-0.083-0.163-0.109c-0.122-0.051-0.26-0.051-0.382,0
		c-0.063,0.025-0.117,0.063-0.163,0.109l-5.045,5.045c-0.195,0.195-0.195,0.512,0,0.707C30.853,56.811,30.979,56.855,31.105,56.855z
		 M56.528,32.903c0-3.271,2.66-5.932,5.933-5.932s5.933,2.658,5.933,5.932c0,3.271-2.66,5.932-5.933,5.932
		S56.528,36.174,56.528,32.903z"/>
	<path d="M66.313,32.903c0-2.125-1.729-3.854-3.854-3.854s-3.854,1.729-3.854,3.854s1.729,3.853,3.854,3.853
		S66.313,35.028,66.313,32.903z M59.606,32.903c0-1.573,1.281-2.854,2.854-2.854s2.854,1.28,2.854,2.854s-1.279,2.853-2.854,2.853
		C60.89,35.756,59.606,34.479,59.606,32.903z"/>
</g>
</svg>
