<?xml version="1.0" encoding="utf-8"?>
<!-- Generator: Adobe Illustrator 16.0.0, SVG Export Plug-In . SVG Version: 6.00 Build 0)  -->
<!DOCTYPE svg PUBLIC "-//W3C//DTD SVG 1.1//EN" "http://www.w3.org/Graphics/SVG/1.1/DTD/svg11.dtd">
<svg version="1.1" id="Layer_1" xmlns="http://www.w3.org/2000/svg" xmlns:xlink="http://www.w3.org/1999/xlink" x="0px" y="0px"
	 width="115px" height="115px" viewBox="0 0 115 115" enable-background="new 0 0 115 115" xml:space="preserve">
<g>
	<path d="M111.994,51.219c0.074-0.155,0.064-0.337-0.027-0.483c-0.092-0.145-0.251-0.233-0.423-0.233h-62v-2.917
		c0-0.276-0.224-0.5-0.5-0.5h-7c-0.271,0-0.5,0.224-0.5,0.5v2.917H3.456c-0.271,0-0.5,0.224-0.5,0.5v13
		c0,0.023,0.011,0.049,0.021,0.074c0.006,0.035,0.008,0.072,0.021,0.107c0.013,0.028,0.034,0.061,0.053,0.086
		c0.021,0.021,0.029,0.051,0.056,0.071c0.022,0.029,0.063,0.054,0.099,0.072c0.021,0.012,0.032,0.024,0.053,0.039
		c0.002,0,0.005,0,0.008,0c0.063,0.022,0.126,0.043,0.194,0.043c0.002,0,0.004,0.002,0.006,0.002l0,0l0,0h38.089v2.916
		c0,0.272,0.229,0.5,0.5,0.5h7c0.275,0,0.5-0.228,0.5-0.5v-3.623h46.386C105.85,63.798,111.748,51.732,111.994,51.219z
		 M29.234,63.505l5.49-12h3.896l-5.49,12H29.234z M24.234,63.505l5.49-12h3.896l-5.49,12H24.234z M19.234,63.505l5.49-12h3.896
		l-5.49,12H19.234z M14.234,63.505l5.49-12h3.896l-5.49,12H14.234z M9.234,63.505l5.49-12h3.896l-5.49,12H9.234z M4.234,63.505
		l5.49-12h3.896l-5.49,12H4.234z M8.625,51.503L3.956,61.712V51.503H8.625z M41.123,63.505h-6.889l5.49-12h1.396L41.123,63.505
		L41.123,63.505z M48.544,66.923h-6V48.086h6V66.923z M49.544,51.503h61.171c-1.432,2.588-6.838,11.292-14.785,11.292H49.544V51.503
		z"/>
	<path d="M86.377,54.128H53.044c-0.271,0-0.5,0.224-0.5,0.5s0.229,0.5,0.5,0.5h33.333c0.275,0,0.5-0.224,0.5-0.5
		S86.654,54.128,86.377,54.128z"/>
	<path d="M94.624,54.128H88.71c-0.276,0-0.5,0.224-0.5,0.5s0.224,0.5,0.5,0.5h5.914c0.276,0,0.5-0.224,0.5-0.5
		S94.9,54.128,94.624,54.128z"/>
</g>
</svg>
