<?xml version="1.0" encoding="utf-8"?>
<!-- Generator: Adobe Illustrator 16.0.0, SVG Export Plug-In . SVG Version: 6.00 Build 0)  -->
<!DOCTYPE svg PUBLIC "-//W3C//DTD SVG 1.1//EN" "http://www.w3.org/Graphics/SVG/1.1/DTD/svg11.dtd">
<svg version="1.1" id="Layer_1" xmlns="http://www.w3.org/2000/svg" xmlns:xlink="http://www.w3.org/1999/xlink" x="0px" y="0px"
	 width="100px" height="100px" viewBox="0 0 100 100" enable-background="new 0 0 100 100" xml:space="preserve">
<g>
	<path d="M87.777,49.735c-0.006-0.01-0.004-0.021-0.01-0.031C79.486,38.337,65.368,31.55,50,31.55s-29.484,6.787-37.768,18.154
		c-0.007,0.01-0.004,0.021-0.01,0.031c-0.052,0.078-0.086,0.166-0.086,0.264c0,0.1,0.034,0.187,0.086,0.265
		c0.006,0.01,0.003,0.022,0.01,0.031C20.515,61.663,34.631,68.45,50,68.45s29.486-6.787,37.768-18.155
		c0.006-0.009,0.004-0.021,0.01-0.031c0.052-0.078,0.086-0.165,0.086-0.265C87.863,49.901,87.826,49.813,87.777,49.735z M50,32.55
		c14.684,0,28.18,6.324,36.344,16.949h-8.139l2.406-2.361c0.197-0.193,0.199-0.51,0.007-0.707c-0.194-0.198-0.511-0.2-0.707-0.007
		l-3.134,3.075h-6.399l3.931-4.846c0.174-0.214,0.143-0.529-0.074-0.703c-0.215-0.174-0.527-0.14-0.701,0.073l-4.44,5.477h-5.547
		l4.492-9.984c0.11-0.252,0.001-0.548-0.251-0.661c-0.251-0.111-0.549,0-0.661,0.251l-4.679,10.396h-6.434l3.737-12.23
		c0.081-0.264-0.067-0.543-0.332-0.624c-0.263-0.083-0.543,0.068-0.624,0.332l-3.827,12.522h-8.895l6.437-13.473
		c0.119-0.249,0.014-0.547-0.236-0.667c-0.248-0.12-0.547-0.013-0.666,0.236l-6.642,13.904h-6.396L43.127,37.3
		c0.099-0.258-0.035-0.546-0.293-0.643c-0.258-0.097-0.546,0.035-0.644,0.293L37.502,49.5h-9.33l5.095-9.962
		c0.125-0.246,0.026-0.547-0.22-0.673c-0.245-0.124-0.547-0.027-0.673,0.218L27.048,49.5h-3.749l2.11-4.966
		c0.107-0.254-0.011-0.547-0.266-0.655c-0.252-0.108-0.548,0.01-0.655,0.265L22.213,49.5h-8.56C21.819,38.874,35.316,32.55,50,32.55
		z M50,67.448c-14.684,0-28.181-6.322-36.345-16.949h8.56l2.276,5.356c0.08,0.189,0.266,0.306,0.46,0.306
		c0.064,0,0.132-0.013,0.194-0.039c0.254-0.108,0.373-0.401,0.266-0.655l-2.11-4.966h3.749l5.326,10.416
		c0.088,0.174,0.266,0.272,0.445,0.272c0.077,0,0.154-0.02,0.228-0.057c0.246-0.126,0.345-0.427,0.22-0.673l-5.095-9.963h9.33
		l4.688,12.552c0.075,0.201,0.267,0.325,0.469,0.325c0.06,0,0.116-0.01,0.175-0.032c0.261-0.097,0.392-0.386,0.293-0.644
		l-4.559-12.2h6.396L51.609,64.4c0.086,0.182,0.266,0.285,0.453,0.285c0.069,0,0.146-0.017,0.215-0.049
		c0.25-0.119,0.354-0.418,0.236-0.668l-6.438-13.473h8.896l3.825,12.521c0.063,0.215,0.267,0.354,0.479,0.354
		c0.049,0,0.099-0.006,0.146-0.021c0.265-0.08,0.413-0.357,0.332-0.623l-3.737-12.229h6.436l4.677,10.396
		c0.083,0.186,0.267,0.295,0.457,0.295c0.067,0,0.14-0.016,0.205-0.045c0.252-0.111,0.362-0.408,0.251-0.66L63.548,50.5h5.548
		l4.44,5.477c0.099,0.123,0.243,0.188,0.389,0.188c0.11,0,0.222-0.037,0.313-0.112c0.215-0.175,0.248-0.487,0.074-0.702
		l-3.933-4.848h6.396l3.137,3.076c0.097,0.095,0.227,0.143,0.352,0.143c0.129,0,0.26-0.051,0.355-0.148
		c0.191-0.197,0.188-0.514-0.01-0.707l-2.403-2.361h8.142C78.18,61.126,64.684,67.448,50,67.448z"/>
</g>
</svg>
