<?xml version="1.0" encoding="utf-8"?>
<!-- Generator: Adobe Illustrator 16.0.0, SVG Export Plug-In . SVG Version: 6.00 Build 0)  -->
<!DOCTYPE svg PUBLIC "-//W3C//DTD SVG 1.1//EN" "http://www.w3.org/Graphics/SVG/1.1/DTD/svg11.dtd">
<svg version="1.1" id="Layer_1" xmlns="http://www.w3.org/2000/svg" xmlns:xlink="http://www.w3.org/1999/xlink" x="0px" y="0px"
	 width="100px" height="100px" viewBox="0 0 100 100" enable-background="new 0 0 100 100" xml:space="preserve">
<g>
	<path d="M50,32.711c-9.785,0-17.746,7.961-17.746,17.746c0,0.275,0.225,0.5,0.5,0.5h4.445v18.699c0,7.057,5.742,12.799,12.8,12.799
		c7.06,0,12.802-5.742,12.802-12.799V50.959h4.445c0.273,0,0.5-0.225,0.5-0.5C67.746,40.672,59.785,32.711,50,32.711z
		 M61.801,69.656c0,6.506-5.295,11.799-11.802,11.799s-11.8-5.293-11.8-11.799V50.959h23.602V69.656L61.801,69.656z M62.301,49.958
		H37.699h-4.438C33.527,40.958,40.934,33.712,50,33.712c9.066,0,16.475,7.243,16.738,16.246H62.301z"/>
	<path d="M50.5,31.689V18.044c0-0.276-0.224-0.5-0.5-0.5c-0.275,0-0.5,0.224-0.5,0.5v13.645c0,0.276,0.225,0.5,0.5,0.5
		C50.276,32.189,50.5,31.965,50.5,31.689z"/>
	<path d="M55.58,70.156c0.275,0,0.5-0.225,0.5-0.5V56.721c0-0.275-0.225-0.5-0.5-0.5c-0.277,0-0.5,0.225-0.5,0.5V69.66
		C55.08,69.932,55.303,70.156,55.58,70.156z"/>
</g>
</svg>
