<?xml version="1.0" encoding="utf-8"?>
<!-- Generator: Adobe Illustrator 16.0.0, SVG Export Plug-In . SVG Version: 6.00 Build 0)  -->
<!DOCTYPE svg PUBLIC "-//W3C//DTD SVG 1.1//EN" "http://www.w3.org/Graphics/SVG/1.1/DTD/svg11.dtd">
<svg version="1.1" id="Layer_1" xmlns="http://www.w3.org/2000/svg" xmlns:xlink="http://www.w3.org/1999/xlink" x="0px" y="0px"
	 width="100px" height="100px" viewBox="0 0 100 100" enable-background="new 0 0 100 100" xml:space="preserve">
<g>
	<path d="M50.001,83.417c7.589,0,13.858-5.933,14.267-13.427l1.688-7.787c0.871-0.54,1.502-1.385,1.726-2.374l0.76-3.37l0,0l0,0
		l1.822-8.089c0.239-1.072-0.014-2.167-0.662-3.059c1.453-6.814,1.455-7.093,1.455-7.672c0-11.61-9.445-21.056-21.057-21.056
		c-11.608,0-21.057,9.445-21.057,21.056c0,0.96,0,1.084,6.781,32.272C36.143,77.484,42.412,83.417,50.001,83.417z M63.882,66.926
		c-0.437,0.981-1.375,1.615-2.396,1.615c-1.459,0-2.646-1.261-2.646-2.811c0-0.014-0.006-0.022-0.007-0.033l0.901-4.161
		c0.037,0.03,0.082,0.05,0.121,0.079c0.149,0.115,0.31,0.215,0.475,0.307c0.07,0.039,0.143,0.082,0.216,0.117
		c0.241,0.113,0.491,0.207,0.753,0.266l1.82,0.41c0.27,0.063,0.544,0.092,0.818,0.092c0.008,0,0.018-0.002,0.024-0.002
		c0.011,0,0.021-0.002,0.028-0.002c0.268-0.004,0.535-0.039,0.8-0.101c0.011-0.003,0.022-0.002,0.034-0.004l-0.901,4.168
		C63.911,66.887,63.893,66.902,63.882,66.926z M63.654,44.521c0.037-0.016,0.076-0.029,0.115-0.043
		c0.133-0.048,0.271-0.086,0.407-0.114c0.027-0.005,0.054-0.013,0.079-0.017c0.164-0.027,0.33-0.04,0.497-0.038
		c0.195,0.003,0.392,0.022,0.583,0.065l1.82,0.41c0.595,0.134,1.123,0.461,1.527,0.945c0.463,0.552,0.683,1.231,0.652,1.921
		l-7.211-1.624c0.221-0.522,0.589-0.966,1.077-1.278C63.35,44.656,63.5,44.584,63.654,44.521z M68.668,50.898l-7.314-1.648
		l0.51-2.26l7.314,1.648L68.668,50.898z M67.575,55.752l-7.315-1.646l0.874-3.877l7.316,1.647L67.575,55.752z M66.814,59.122
		l-7.313-1.647l0.539-2.396l7.313,1.647L66.814,59.122z M62.484,44.047c-0.752,0.545-1.282,1.324-1.488,2.235l-0.729,3.235l0,0l0,0
		l-1.854,8.224c-0.22,0.97-0.021,1.983,0.506,2.835l-1.83,8.438c-0.007,0.035-0.011,0.07-0.011,0.106
		c0,3.903-3.178,7.079-7.079,7.079c-3.902,0-7.079-3.176-7.079-7.079c0-0.036-0.004-0.071-0.011-0.106
		c-2.294-10.559-6.656-30.714-6.748-31.375c0-7.63,6.208-13.837,13.837-13.837s13.837,6.208,13.84,13.79
		C63.824,37.717,63.624,38.733,62.484,44.047z M65.271,61.465c-0.186,0.1-0.381,0.168-0.578,0.225
		c-0.063,0.019-0.125,0.029-0.188,0.043c-0.147,0.031-0.299,0.052-0.448,0.059c-0.06,0.003-0.117,0.01-0.178,0.01
		c-0.182-0.004-0.363-0.021-0.543-0.062l-1.818-0.41c-0.166-0.037-0.328-0.09-0.482-0.157c-0.467-0.203-0.874-0.531-1.182-0.962
		c-0.375-0.524-0.549-1.133-0.522-1.749l7.21,1.625C66.292,60.666,65.854,61.156,65.271,61.465z M50.001,17.584
		c11.06,0,20.058,8.997,20.058,20.056c0,0.461,0,0.723-1.293,6.801c-0.033-0.024-0.07-0.038-0.104-0.061
		c-0.137-0.092-0.273-0.173-0.42-0.247c-0.066-0.034-0.131-0.071-0.197-0.1c-0.214-0.093-0.438-0.172-0.666-0.224l-1.818-0.41
		c-0.223-0.049-0.445-0.072-0.67-0.082c-0.053-0.002-0.102-0.004-0.15-0.004c-0.225-0.001-0.449,0.013-0.67,0.051
		c-0.01,0.002-0.02,0.004-0.026,0.006c-0.138,0.025-0.274,0.054-0.407,0.093c1.204-5.634,1.204-5.734,1.204-5.823
		c0-8.181-6.655-14.837-14.837-14.837S35.165,29.459,35.165,37.64c0,0.364,4.229,19.889,6.759,31.536
		c0.03,4.43,3.644,8.024,8.079,8.024c4.437,0,8.049-3.595,8.079-8.024l0.314-1.449c0.643,1.086,1.783,1.815,3.092,1.815
		c0.722,0,1.412-0.228,1.994-0.627l-0.203,0.944c-0.387,7.041-6.219,12.558-13.278,12.558c-7.059,0-12.891-5.517-13.287-12.64
		c-6.77-31.161-6.77-31.312-6.77-32.138C29.944,26.581,38.941,17.584,50.001,17.584z"/>
	<circle cx="61.582" cy="65.599" r="0.874"/>
</g>
</svg>
