<?xml version="1.0" encoding="utf-8"?>
<!-- Generator: Adobe Illustrator 16.0.0, SVG Export Plug-In . SVG Version: 6.00 Build 0)  -->
<!DOCTYPE svg PUBLIC "-//W3C//DTD SVG 1.1//EN" "http://www.w3.org/Graphics/SVG/1.1/DTD/svg11.dtd">
<svg version="1.1" id="Layer_1" xmlns="http://www.w3.org/2000/svg" xmlns:xlink="http://www.w3.org/1999/xlink" x="0px" y="0px"
	 width="100px" height="100px" viewBox="0 0 100 100" enable-background="new 0 0 100 100" xml:space="preserve">
<g>
	<path d="M94.99,78.559c0.002-0.02,0.01-0.035,0.01-0.053c0-0.014-0.006-0.023-0.008-0.041c-0.004-0.029-0.01-0.063-0.02-0.098
		c-0.012-0.033-0.021-0.063-0.037-0.094c-0.006-0.016-0.01-0.027-0.016-0.037L64.08,30.043c-0.01-0.014-0.021-0.021-0.033-0.034
		c-0.021-0.027-0.043-0.051-0.068-0.074c-0.025-0.022-0.055-0.04-0.082-0.056c-0.016-0.008-0.023-0.021-0.039-0.028
		c-0.018-0.006-0.029-0.004-0.045-0.009c-0.033-0.011-0.066-0.017-0.104-0.021c-0.027-0.003-0.059-0.004-0.086-0.002
		c-0.035,0.003-0.066,0.01-0.104,0.02c-0.026,0.008-0.056,0.018-0.082,0.032c-0.017,0.008-0.03,0.009-0.047,0.019
		c-0.017,0.01-0.022,0.026-0.039,0.037c-0.022,0.02-0.045,0.04-0.063,0.064c-0.024,0.028-0.045,0.056-0.063,0.088
		c-0.006,0.014-0.02,0.023-0.023,0.037l-8.779,20.729L37.793,21.241c-0.006-0.01-0.016-0.016-0.022-0.026
		c-0.019-0.029-0.043-0.054-0.068-0.079c-0.024-0.023-0.047-0.045-0.074-0.063c-0.01-0.007-0.017-0.017-0.028-0.024
		c-0.017-0.009-0.035-0.01-0.053-0.017c-0.032-0.014-0.064-0.025-0.098-0.032c-0.031-0.006-0.061-0.008-0.092-0.008
		c-0.032,0-0.062,0.002-0.094,0.008c-0.035,0.007-0.066,0.018-0.098,0.032c-0.018,0.007-0.036,0.008-0.053,0.017
		c-0.011,0.006-0.017,0.017-0.027,0.023c-0.028,0.018-0.051,0.041-0.075,0.065c-0.024,0.024-0.047,0.048-0.065,0.077
		c-0.007,0.01-0.017,0.016-0.023,0.027L5.063,78.264c-0.004,0.008-0.004,0.018-0.008,0.023c-0.015,0.029-0.022,0.064-0.031,0.094
		c-0.009,0.033-0.018,0.066-0.02,0.102C5.004,78.488,5,78.496,5,78.506c0,0.021,0.01,0.041,0.012,0.064
		c0.005,0.035,0.009,0.068,0.021,0.102c0.011,0.031,0.026,0.059,0.042,0.084c0.016,0.027,0.032,0.057,0.054,0.08
		c0.023,0.025,0.05,0.045,0.078,0.066c0.018,0.012,0.03,0.031,0.05,0.041c0.007,0.004,0.015,0.002,0.022,0.006
		c0.067,0.035,0.141,0.059,0.222,0.059h89c0.09,0,0.168-0.027,0.242-0.068c0.008-0.004,0.021-0.002,0.026-0.008
		c0.017-0.012,0.024-0.025,0.039-0.035c0.026-0.023,0.051-0.045,0.071-0.072c0.021-0.025,0.037-0.049,0.054-0.076
		s0.026-0.057,0.037-0.086C94.98,78.623,94.986,78.59,94.99,78.559z M69.502,49.71l-3.799-3.8c-0.111-0.11-0.258-0.151-0.4-0.138
		c-0.129-0.002-0.26,0.046-0.359,0.145l-3.588,3.589l-3.711-3.71l6.107-14.417l9.406,14.697c-0.021,0.015-0.047,0.024-0.066,0.043
		L69.502,49.71z M47.781,67.805c0.063,0.025,0.13,0.037,0.195,0.037c0.194,0,0.38-0.111,0.46-0.305l8.787-20.745L61,50.57
		c0.098,0.098,0.227,0.145,0.354,0.145c0.129,0,0.256-0.049,0.355-0.145l3.619-3.62l3.82,3.823c0.1,0.098,0.227,0.145,0.354,0.145
		s0.256-0.049,0.354-0.145l3.845-3.845l19.887,31.077H6.353l18.761-33.58l3.802,3.802c0.098,0.098,0.226,0.146,0.354,0.146
		s0.256-0.049,0.354-0.146c0.006-0.006,0.008-0.014,0.013-0.02c0.011-0.009,0.024-0.013,0.035-0.023l3.589-3.589l3.8,3.8
		c0.098,0.098,0.226,0.146,0.354,0.146c0.016,0,0.03-0.008,0.046-0.009c0.002,0,0.004,0.001,0.006,0.001
		c0.128,0,0.256-0.049,0.354-0.146l3.589-3.589l3.8,3.8c0.098,0.098,0.226,0.146,0.354,0.146s0.256-0.049,0.354-0.146
		c0.006-0.006,0.008-0.015,0.014-0.021c0.01-0.009,0.023-0.012,0.033-0.022l3.86-3.859l4.106,7.314L47.52,67.148
		C47.409,67.4,47.527,67.695,47.781,67.805z M37.359,22.506l11.968,21.311c-0.046,0.023-0.092,0.048-0.131,0.087l-3.635,3.634
		l-3.802-3.802c-0.195-0.195-0.512-0.195-0.707,0l-3.619,3.619l-3.822-3.822c-0.195-0.195-0.512-0.195-0.707,0l-3.634,3.635
		l-3.65-3.65L37.359,22.506z"/>
	<path d="M65.039,34.633c-0.146-0.234-0.453-0.304-0.689-0.158c-0.23,0.147-0.305,0.456-0.158,0.689l6.396,10.197
		c0.098,0.151,0.26,0.234,0.426,0.234c0.092,0,0.184-0.024,0.266-0.076c0.234-0.147,0.307-0.456,0.158-0.689L65.039,34.633z"/>
	<path d="M45.119,40.715c0.09,0.168,0.263,0.265,0.441,0.265c0.08,0,0.16-0.019,0.235-0.059c0.243-0.13,0.336-0.433,0.206-0.676
		l-6.125-11.481c-0.131-0.244-0.434-0.335-0.677-0.206c-0.243,0.129-0.336,0.433-0.206,0.676L45.119,40.715z"/>
</g>
</svg>
