<?xml version="1.0" encoding="utf-8"?>
<!-- Generator: Adobe Illustrator 16.0.0, SVG Export Plug-In . SVG Version: 6.00 Build 0)  -->
<!DOCTYPE svg PUBLIC "-//W3C//DTD SVG 1.1//EN" "http://www.w3.org/Graphics/SVG/1.1/DTD/svg11.dtd">
<svg version="1.1" id="Layer_1" xmlns="http://www.w3.org/2000/svg" xmlns:xlink="http://www.w3.org/1999/xlink" x="0px" y="0px"
	 width="100px" height="100px" viewBox="0 0 100 100" enable-background="new 0 0 100 100" xml:space="preserve">
<g>
	<path d="M44.465,67.399c0,3.054,2.482,5.535,5.534,5.535c3.052,0,5.534-2.481,5.534-5.535V43.398h9.8c0.276,0,0.5-0.224,0.5-0.5
		c0-8.729-7.103-15.833-15.833-15.833c-8.73,0-15.833,7.104-15.833,15.833c0,0.276,0.224,0.5,0.5,0.5h9.799L44.465,67.399
		L44.465,67.399z M45.465,62.399h9.068v1h-9.068V62.399z M54.533,61.399h-9.069v-1h9.069V61.399z M49.999,71.937
		c-2.5,0-4.534-2.033-4.534-4.535v-3h9.068v3C54.533,69.899,52.499,71.937,49.999,71.937z M54.533,59.399h-9.069V43.398h9.069
		V59.399z M49.999,28.066c8.013,0,14.562,6.386,14.825,14.333h-9.791H44.965h-9.791C35.438,34.452,41.987,28.066,49.999,28.066z"/>
</g>
</svg>
