<?xml version="1.0" encoding="utf-8"?>
<!-- Generator: Adobe Illustrator 16.0.0, SVG Export Plug-In . SVG Version: 6.00 Build 0)  -->
<!DOCTYPE svg PUBLIC "-//W3C//DTD SVG 1.1//EN" "http://www.w3.org/Graphics/SVG/1.1/DTD/svg11.dtd">
<svg version="1.1" id="Layer_1" xmlns="http://www.w3.org/2000/svg" xmlns:xlink="http://www.w3.org/1999/xlink" x="0px" y="0px"
	 width="100px" height="100px" viewBox="0 0 100 100" enable-background="new 0 0 100 100" xml:space="preserve">
<g>
	<path d="M25.91,57.98c-0.016,0.047-0.03,0.096-0.03,0.148c0,0.104,0.04,0.195,0.094,0.277c0.221,1.541,0.483,3.063,0.811,4.549
		c-0.02,0.055-0.035,0.109-0.035,0.174c0,0.146,0.066,0.275,0.166,0.367c1.855,8.045,5.253,15.166,9.932,20.32
		c0.739,0.814,1.497,1.533,2.264,2.207c0.033,0.041,0.073,0.074,0.118,0.104c3.43,2.977,7.104,4.557,10.77,4.557
		c3.677,0,7.361-1.592,10.801-4.582c0.022-0.02,0.045-0.035,0.063-0.057c0.775-0.68,1.541-1.402,2.287-2.229
		c7.688-8.472,11.928-22.229,11.502-36.699c0-0.008,0.008-0.014,0.008-0.021c0-0.013-0.008-0.021-0.008-0.03
		c-0.045-1.5-0.123-3.005-0.271-4.517c-0.26-2.671-1.872-9.561-2.133-10.467c-0.006-0.054-0.021-0.104-0.043-0.151
		c-1.863-6.161-9.34-10.819-18.472-11.832v-7.054C53.732,10.989,52.059,9.316,50,9.316c-2.058,0-3.733,1.675-3.733,3.731v7.054
		c-9.118,1.011-16.587,5.656-18.463,11.805c-0.021,0.045-0.036,0.096-0.042,0.15c-0.271,0.938-1.883,7.824-2.143,10.498
		c-0.147,1.51-0.225,3.015-0.27,4.515c-0.001,0.011-0.006,0.019-0.006,0.03c0,0.008,0.004,0.015,0.005,0.021
		C25.239,50.813,25.43,54.457,25.91,57.98z M47.267,13.048c0-1.506,1.226-2.73,2.733-2.73s2.732,1.226,2.732,2.731v6.966
		c-0.899-0.073-1.809-0.123-2.732-0.123s-1.833,0.05-2.733,0.123V13.048z M34.034,25.466c0.07,0.038,0.147,0.064,0.232,0.064h3
		c0.276,0,0.5-0.224,0.5-0.5s-0.224-0.5-0.5-0.5h-1.778c3.145-1.843,7.105-3.084,11.444-3.487h6.136
		c4.339,0.403,8.3,1.645,11.443,3.487h-0.246c-0.277,0-0.5,0.224-0.5,0.5s0.223,0.5,0.5,0.5h1.469c0.084,0,0.162-0.027,0.229-0.064
		c2.636,1.865,4.526,4.194,5.302,6.818c0,0.002,0.002,0.005,0.002,0.007c0.004,0.019,0.006,0.032,0.008,0.042
		c0.103,0.354,0.416,1.646,0.771,3.231h-2.721c-0.276,0-0.5,0.224-0.5,0.5c0,0.274,0.224,0.5,0.5,0.5h2.94
		c0.484,2.226,0.986,4.745,1.116,6.085c0.134,1.354,0.211,2.68,0.263,3.985c-0.181,0.076-0.307,0.255-0.307,0.463
		c0,0.214,0.137,0.394,0.326,0.465c0.139,5.483-0.396,10.535-1.405,15.069c-0.005,0-0.009-0.002-0.013-0.002h-3
		c-0.275,0-0.5,0.224-0.5,0.5c0,0.275,0.225,0.5,0.5,0.5h2.779c-0.303,1.254-0.627,2.481-0.994,3.654h-0.41
		c-0.275,0-0.5,0.225-0.5,0.5c0,0.274,0.225,0.5,0.5,0.5h0.068c-0.535,1.59-1.121,3.098-1.754,4.518H66.77
		c-0.275,0-0.5,0.224-0.5,0.5c0,0.275,0.225,0.5,0.5,0.5h1.709c-1.434,3.021-3.049,5.621-4.723,7.74
		c-0.018-0.26-0.229-0.467-0.492-0.467h-3c-0.275,0-0.5,0.225-0.5,0.5c0,0.276,0.225,0.5,0.5,0.5h3c0.023,0,0.045-0.011,0.067-0.015
		c-0.308,0.373-0.613,0.744-0.922,1.084c-0.691,0.763-1.397,1.437-2.113,2.067h-2.802c-0.276,0-0.5,0.224-0.5,0.5
		c0,0.274,0.224,0.5,0.5,0.5h1.604c-2.943,2.271-6.035,3.468-9.1,3.468c-3.065,0-6.155-1.197-9.099-3.468h1.594
		c0.276,0,0.5-0.226,0.5-0.5c0-0.276-0.224-0.5-0.5-0.5H39.7c-0.714-0.633-1.422-1.307-2.113-2.067
		c-0.305-0.336-0.608-0.703-0.911-1.069h2.587c0.276,0,0.5-0.224,0.5-0.5c0-0.275-0.224-0.5-0.5-0.5h-3
		c-0.113,0-0.211,0.045-0.295,0.106c-0.758-0.986-1.502-2.065-2.223-3.244h2.109c0.276,0,0.5-0.224,0.5-0.5
		c0-0.274-0.224-0.5-0.5-0.5h-2.7c-0.567-0.985-1.113-2.032-1.637-3.138h2.25c0.276,0,0.5-0.225,0.5-0.5c0-0.276-0.224-0.5-0.5-0.5
		h-2.709c-0.633-1.42-1.22-2.928-1.754-4.518h2.318c0.276,0,0.5-0.226,0.5-0.5c0-0.275-0.224-0.5-0.5-0.5h-2.659
		c-0.368-1.173-0.693-2.4-0.995-3.654h2.28c0.276,0,0.5-0.226,0.5-0.5c0-0.276-0.224-0.5-0.5-0.5h-2.514
		c-0.287-1.295-0.542-2.625-0.749-4h2.393c0.276,0,0.5-0.226,0.5-0.5c0-0.276-0.224-0.5-0.5-0.5h-2.523
		c-0.196-1.467-0.353-2.967-0.446-4.519h2.969c0.276,0,0.5-0.226,0.5-0.5s-0.224-0.5-0.5-0.5h-3c-0.005,0-0.009,0.002-0.014,0.002
		c-0.065-1.469-0.073-2.979-0.034-4.518h2.511c0.276,0,0.5-0.225,0.5-0.5s-0.224-0.5-0.5-0.5h-2.49
		c0.051-1.296,0.131-2.606,0.261-3.947c0.017-0.171,0.04-0.363,0.068-0.569h2.633c0.276,0,0.5-0.224,0.5-0.5s-0.224-0.5-0.5-0.5
		h-2.478c0.223-1.33,0.561-2.988,0.895-4.517h2.596c0.276,0,0.5-0.226,0.5-0.5c0-0.276-0.224-0.5-0.5-0.5h-2.375
		c0.356-1.586,0.669-2.878,0.771-3.231c0.002-0.009,0.005-0.021,0.008-0.039c0.001-0.003,0.002-0.007,0.003-0.01
		c0.124-0.42,0.277-0.832,0.457-1.237h2.981c0.276,0,0.5-0.224,0.5-0.5c0-0.274-0.224-0.5-0.5-0.5h-2.466
		C30.689,28.327,32.175,26.781,34.034,25.466z"/>
	<path d="M46.671,30.547c0,0.276,0.224,0.5,0.5,0.5h3c0.276,0,0.5-0.224,0.5-0.5c0-0.274-0.224-0.5-0.5-0.5h-3
		C46.895,30.047,46.671,30.271,46.671,30.547z"/>
	<path d="M40.671,30.547c0,0.276,0.224,0.5,0.5,0.5h3c0.276,0,0.5-0.224,0.5-0.5c0-0.274-0.224-0.5-0.5-0.5h-3
		C40.895,30.047,40.671,30.271,40.671,30.547z"/>
	<path d="M52.671,30.547c0,0.276,0.224,0.5,0.5,0.5h3c0.276,0,0.5-0.224,0.5-0.5c0-0.274-0.224-0.5-0.5-0.5h-3
		C52.895,30.047,52.671,30.271,52.671,30.547z"/>
	<path d="M58.671,30.547c0,0.276,0.224,0.5,0.5,0.5h3c0.276,0,0.5-0.224,0.5-0.5c0-0.274-0.224-0.5-0.5-0.5h-3
		C58.895,30.047,58.671,30.271,58.671,30.547z"/>
	<path d="M35.171,31.047h3c0.276,0,0.5-0.224,0.5-0.5c0-0.274-0.224-0.5-0.5-0.5h-3c-0.276,0-0.5,0.226-0.5,0.5
		C34.671,30.823,34.895,31.047,35.171,31.047z"/>
	<path d="M65.171,31.047h3c0.276,0,0.5-0.224,0.5-0.5c0-0.274-0.224-0.5-0.5-0.5h-3c-0.276,0-0.5,0.226-0.5,0.5
		C64.671,30.823,64.895,31.047,65.171,31.047z"/>
	<path d="M58.266,25.53h3c0.276,0,0.5-0.224,0.5-0.5s-0.224-0.5-0.5-0.5h-3c-0.273,0-0.5,0.224-0.5,0.5S57.988,25.53,58.266,25.53z"
		/>
	<path d="M46.266,25.53h3c0.276,0,0.5-0.224,0.5-0.5s-0.224-0.5-0.5-0.5h-3c-0.276,0-0.5,0.224-0.5,0.5S45.989,25.53,46.266,25.53z"
		/>
	<path d="M52.266,25.53h3c0.276,0,0.5-0.224,0.5-0.5s-0.224-0.5-0.5-0.5h-3c-0.273,0-0.5,0.224-0.5,0.5S51.988,25.53,52.266,25.53z"
		/>
	<path d="M40.266,25.53h3c0.276,0,0.5-0.224,0.5-0.5s-0.224-0.5-0.5-0.5h-3c-0.276,0-0.5,0.224-0.5,0.5S39.989,25.53,40.266,25.53z"
		/>
	<path d="M63.327,36.564h3c0.276,0,0.5-0.226,0.5-0.5c0-0.276-0.224-0.5-0.5-0.5h-3c-0.276,0-0.5,0.224-0.5,0.5
		C62.827,36.34,63.051,36.564,63.327,36.564z"/>
	<path d="M57.327,36.564h3c0.276,0,0.5-0.226,0.5-0.5c0-0.276-0.224-0.5-0.5-0.5h-3c-0.276,0-0.5,0.224-0.5,0.5
		C56.827,36.34,57.051,36.564,57.327,36.564z"/>
	<path d="M33.327,36.564h3c0.276,0,0.5-0.226,0.5-0.5c0-0.276-0.224-0.5-0.5-0.5h-3c-0.276,0-0.5,0.224-0.5,0.5
		C32.827,36.34,33.051,36.564,33.327,36.564z"/>
	<path d="M51.327,36.564h3c0.276,0,0.5-0.226,0.5-0.5c0-0.276-0.224-0.5-0.5-0.5h-3c-0.276,0-0.5,0.224-0.5,0.5
		C50.827,36.34,51.051,36.564,51.327,36.564z"/>
	<path d="M39.327,36.564h3c0.276,0,0.5-0.226,0.5-0.5c0-0.276-0.224-0.5-0.5-0.5h-3c-0.276,0-0.5,0.224-0.5,0.5
		C38.827,36.34,39.051,36.564,39.327,36.564z"/>
	<path d="M45.327,36.564h3c0.276,0,0.5-0.226,0.5-0.5c0-0.276-0.224-0.5-0.5-0.5h-3c-0.276,0-0.5,0.224-0.5,0.5
		C44.827,36.34,45.051,36.564,45.327,36.564z"/>
	<path d="M59.314,41.081h-3c-0.276,0-0.5,0.226-0.5,0.5c0,0.276,0.224,0.5,0.5,0.5h3c0.273,0,0.5-0.224,0.5-0.5
		C59.814,41.307,59.591,41.081,59.314,41.081z"/>
	<path d="M32.314,42.081h3c0.276,0,0.5-0.224,0.5-0.5c0-0.274-0.224-0.5-0.5-0.5h-3c-0.276,0-0.5,0.226-0.5,0.5
		C31.814,41.857,32.038,42.081,32.314,42.081z"/>
	<path d="M53.314,41.081h-3c-0.276,0-0.5,0.226-0.5,0.5c0,0.276,0.224,0.5,0.5,0.5h3c0.273,0,0.5-0.224,0.5-0.5
		C53.814,41.307,53.591,41.081,53.314,41.081z"/>
	<path d="M67.814,41.581c0,0.276,0.224,0.5,0.5,0.5h3c0.273,0,0.5-0.224,0.5-0.5c0-0.274-0.227-0.5-0.5-0.5h-3
		C68.038,41.081,67.814,41.306,67.814,41.581z"/>
	<path d="M65.314,41.081h-3c-0.276,0-0.5,0.226-0.5,0.5c0,0.276,0.224,0.5,0.5,0.5h3c0.273,0,0.5-0.224,0.5-0.5
		C65.814,41.307,65.591,41.081,65.314,41.081z"/>
	<path d="M47.314,41.081h-3c-0.276,0-0.5,0.226-0.5,0.5c0,0.276,0.224,0.5,0.5,0.5h3c0.276,0,0.5-0.224,0.5-0.5
		C47.814,41.307,47.591,41.081,47.314,41.081z"/>
	<path d="M41.314,41.081h-3c-0.276,0-0.5,0.226-0.5,0.5c0,0.276,0.224,0.5,0.5,0.5h3c0.276,0,0.5-0.224,0.5-0.5
		C41.814,41.307,41.591,41.081,41.314,41.081z"/>
	<path d="M61.342,47.1c0,0.274,0.225,0.5,0.5,0.5h3c0.276,0,0.5-0.226,0.5-0.5c0-0.276-0.224-0.5-0.5-0.5h-3
		C61.566,46.6,61.342,46.821,61.342,47.1z"/>
	<path d="M55.342,47.1c0,0.274,0.225,0.5,0.5,0.5h3c0.276,0,0.5-0.226,0.5-0.5c0-0.276-0.224-0.5-0.5-0.5h-3
		C55.566,46.6,55.342,46.821,55.342,47.1z"/>
	<path d="M43.342,47.1c0,0.274,0.224,0.5,0.5,0.5h3c0.276,0,0.5-0.226,0.5-0.5c0-0.276-0.224-0.5-0.5-0.5h-3
		C43.566,46.6,43.342,46.821,43.342,47.1z"/>
	<path d="M70.842,47.6c0.276,0,0.5-0.226,0.5-0.5c0-0.276-0.224-0.5-0.5-0.5h-3c-0.275,0-0.5,0.224-0.5,0.5
		c0,0.274,0.225,0.5,0.5,0.5H70.842z"/>
	<path d="M37.342,47.1c0,0.274,0.224,0.5,0.5,0.5h3c0.276,0,0.5-0.226,0.5-0.5c0-0.276-0.224-0.5-0.5-0.5h-3
		C37.566,46.6,37.342,46.821,37.342,47.1z"/>
	<path d="M49.342,47.1c0,0.274,0.225,0.5,0.5,0.5h3c0.276,0,0.5-0.226,0.5-0.5c0-0.276-0.224-0.5-0.5-0.5h-3
		C49.566,46.6,49.342,46.821,49.342,47.1z"/>
	<path d="M35.342,47.1c0-0.276-0.224-0.5-0.5-0.5h-3c-0.276,0-0.5,0.224-0.5,0.5c0,0.274,0.224,0.5,0.5,0.5h3
		C35.119,47.6,35.342,47.374,35.342,47.1z"/>
	<path d="M41.38,52.113h-3c-0.276,0-0.5,0.225-0.5,0.5c0,0.277,0.224,0.5,0.5,0.5h3c0.276,0,0.5-0.223,0.5-0.5
		C41.88,52.338,41.656,52.113,41.38,52.113z"/>
	<path d="M53.38,52.113h-3c-0.276,0-0.5,0.225-0.5,0.5c0,0.277,0.224,0.5,0.5,0.5h3c0.276,0,0.5-0.223,0.5-0.5
		C53.88,52.338,53.656,52.113,53.38,52.113z"/>
	<path d="M47.38,52.113h-3c-0.276,0-0.5,0.225-0.5,0.5c0,0.277,0.224,0.5,0.5,0.5h3c0.276,0,0.5-0.223,0.5-0.5
		C47.88,52.338,47.656,52.113,47.38,52.113z"/>
	<path d="M32.38,52.113c-0.276,0-0.5,0.225-0.5,0.5c0,0.277,0.224,0.5,0.5,0.5h3c0.276,0,0.5-0.223,0.5-0.5
		c0-0.275-0.224-0.5-0.5-0.5H32.38z"/>
	<path d="M65.38,52.113h-3c-0.276,0-0.5,0.225-0.5,0.5c0,0.277,0.224,0.5,0.5,0.5h3c0.276,0,0.5-0.223,0.5-0.5
		C65.88,52.338,65.656,52.113,65.38,52.113z"/>
	<path d="M59.38,52.113h-3c-0.276,0-0.5,0.225-0.5,0.5c0,0.277,0.224,0.5,0.5,0.5h3c0.276,0,0.5-0.223,0.5-0.5
		C59.88,52.338,59.656,52.113,59.38,52.113z"/>
	<path d="M71.38,52.113h-3c-0.276,0-0.5,0.225-0.5,0.5c0,0.277,0.224,0.5,0.5,0.5h3c0.276,0,0.5-0.223,0.5-0.5
		C71.88,52.338,71.656,52.113,71.38,52.113z"/>
	<path d="M47.88,58.131c0-0.275-0.224-0.5-0.5-0.5h-3c-0.276,0-0.5,0.225-0.5,0.5s0.224,0.5,0.5,0.5h3
		C47.656,58.631,47.88,58.408,47.88,58.131z"/>
	<path d="M59.88,58.131c0-0.275-0.224-0.5-0.5-0.5h-3c-0.276,0-0.5,0.225-0.5,0.5s0.224,0.5,0.5,0.5h3
		C59.656,58.631,59.88,58.408,59.88,58.131z"/>
	<path d="M53.88,58.131c0-0.275-0.224-0.5-0.5-0.5h-3c-0.276,0-0.5,0.225-0.5,0.5s0.224,0.5,0.5,0.5h3
		C53.656,58.631,53.88,58.408,53.88,58.131z"/>
	<path d="M35.88,58.131c0-0.275-0.224-0.5-0.5-0.5h-3c-0.276,0-0.5,0.225-0.5,0.5s0.224,0.5,0.5,0.5h3
		C35.656,58.631,35.88,58.408,35.88,58.131z"/>
	<path d="M65.88,58.131c0-0.275-0.224-0.5-0.5-0.5h-3c-0.276,0-0.5,0.225-0.5,0.5s0.224,0.5,0.5,0.5h3
		C65.656,58.631,65.88,58.408,65.88,58.131z"/>
	<path d="M41.88,58.131c0-0.275-0.224-0.5-0.5-0.5h-3c-0.276,0-0.5,0.225-0.5,0.5s0.224,0.5,0.5,0.5h3
		C41.656,58.631,41.88,58.408,41.88,58.131z"/>
	<path d="M71.38,57.631h-3c-0.276,0-0.5,0.225-0.5,0.5s0.224,0.5,0.5,0.5h3c0.276,0,0.5-0.225,0.5-0.5S71.656,57.631,71.38,57.631z"
		/>
	<path d="M54.25,62.631h-3c-0.275,0-0.5,0.225-0.5,0.5s0.225,0.5,0.5,0.5h3c0.275,0,0.5-0.225,0.5-0.5S54.525,62.631,54.25,62.631z"
		/>
	<path d="M63.25,63.631h3c0.275,0,0.5-0.225,0.5-0.5s-0.225-0.5-0.5-0.5h-3c-0.275,0-0.5,0.225-0.5,0.5S62.975,63.631,63.25,63.631z
		"/>
	<path d="M60.25,62.631h-3c-0.275,0-0.5,0.225-0.5,0.5s0.225,0.5,0.5,0.5h3c0.275,0,0.5-0.225,0.5-0.5S60.525,62.631,60.25,62.631z"
		/>
	<path d="M36.75,63.131c0-0.275-0.224-0.5-0.5-0.5h-3c-0.276,0-0.5,0.225-0.5,0.5s0.224,0.5,0.5,0.5h3
		C36.526,63.631,36.75,63.406,36.75,63.131z"/>
	<path d="M48.25,62.631h-3c-0.276,0-0.5,0.225-0.5,0.5s0.224,0.5,0.5,0.5h3c0.275,0,0.5-0.225,0.5-0.5S48.525,62.631,48.25,62.631z"
		/>
	<path d="M42.25,62.631h-3c-0.276,0-0.5,0.225-0.5,0.5s0.224,0.5,0.5,0.5h3c0.276,0,0.5-0.225,0.5-0.5S42.526,62.631,42.25,62.631z"
		/>
	<path d="M67.625,67.285h-3c-0.275,0-0.5,0.225-0.5,0.5c0,0.277,0.225,0.5,0.5,0.5h3c0.275,0,0.5-0.223,0.5-0.5
		C68.125,67.51,67.9,67.285,67.625,67.285z"/>
	<path d="M58.125,67.785c0,0.277,0.225,0.5,0.5,0.5h3c0.275,0,0.5-0.223,0.5-0.5c0-0.275-0.225-0.5-0.5-0.5h-3
		C58.348,67.285,58.125,67.51,58.125,67.785z"/>
	<path d="M38.125,67.785c0-0.275-0.224-0.5-0.5-0.5h-3c-0.276,0-0.5,0.225-0.5,0.5c0,0.277,0.224,0.5,0.5,0.5h3
		C37.901,68.285,38.125,68.063,38.125,67.785z"/>
	<path d="M52.125,67.785c0,0.277,0.225,0.5,0.5,0.5h3c0.275,0,0.5-0.223,0.5-0.5c0-0.275-0.225-0.5-0.5-0.5h-3
		C52.348,67.285,52.125,67.51,52.125,67.785z"/>
	<path d="M46.125,67.785c0,0.277,0.224,0.5,0.5,0.5h3c0.275,0,0.5-0.223,0.5-0.5c0-0.275-0.225-0.5-0.5-0.5h-3
		C46.348,67.285,46.125,67.51,46.125,67.785z"/>
	<path d="M40.125,67.785c0,0.277,0.224,0.5,0.5,0.5h3c0.276,0,0.5-0.223,0.5-0.5c0-0.275-0.224-0.5-0.5-0.5h-3
		C40.348,67.285,40.125,67.51,40.125,67.785z"/>
	<path d="M64.271,73.303c0-0.277-0.227-0.5-0.5-0.5h-3c-0.276,0-0.5,0.223-0.5,0.5c0,0.275,0.224,0.5,0.5,0.5h3
		C64.047,73.803,64.271,73.58,64.271,73.303z"/>
	<path d="M40.271,73.303c0-0.277-0.224-0.5-0.5-0.5h-3c-0.276,0-0.5,0.223-0.5,0.5c0,0.275,0.224,0.5,0.5,0.5h3
		C40.047,73.803,40.271,73.58,40.271,73.303z"/>
	<path d="M46.271,73.303c0-0.277-0.224-0.5-0.5-0.5h-3c-0.276,0-0.5,0.223-0.5,0.5c0,0.275,0.224,0.5,0.5,0.5h3
		C46.047,73.803,46.271,73.58,46.271,73.303z"/>
	<path d="M48.771,73.803h3c0.273,0,0.5-0.225,0.5-0.5c0-0.277-0.227-0.5-0.5-0.5h-3c-0.276,0-0.5,0.223-0.5,0.5
		C48.271,73.578,48.494,73.803,48.771,73.803z"/>
	<path d="M54.771,73.803h3c0.273,0,0.5-0.225,0.5-0.5c0-0.277-0.227-0.5-0.5-0.5h-3c-0.276,0-0.5,0.223-0.5,0.5
		C54.271,73.578,54.494,73.803,54.771,73.803z"/>
	<path d="M44.857,77.939h3c0.276,0,0.5-0.225,0.5-0.5s-0.224-0.5-0.5-0.5h-3c-0.276,0-0.5,0.225-0.5,0.5
		C44.357,77.717,44.581,77.939,44.857,77.939z"/>
	<path d="M42.357,77.439c0-0.275-0.224-0.5-0.5-0.5h-3c-0.276,0-0.5,0.225-0.5,0.5s0.224,0.5,0.5,0.5h3
		C42.133,77.939,42.357,77.717,42.357,77.439z"/>
	<path d="M59.857,76.939h-3c-0.276,0-0.5,0.225-0.5,0.5s0.224,0.5,0.5,0.5h3c0.273,0,0.5-0.225,0.5-0.5S60.133,76.939,59.857,76.939
		z"/>
	<path d="M65.857,76.939h-3c-0.276,0-0.5,0.225-0.5,0.5s0.224,0.5,0.5,0.5h3c0.273,0,0.5-0.225,0.5-0.5S66.133,76.939,65.857,76.939
		z"/>
	<path d="M50.857,77.939h3c0.273,0,0.5-0.225,0.5-0.5s-0.227-0.5-0.5-0.5h-3c-0.276,0-0.5,0.225-0.5,0.5
		C50.357,77.717,50.581,77.939,50.857,77.939z"/>
	<path d="M45.766,81.578c0-0.275-0.224-0.5-0.5-0.5h-3c-0.276,0-0.5,0.225-0.5,0.5s0.224,0.5,0.5,0.5h3
		C45.542,82.078,45.766,81.854,45.766,81.578z"/>
	<path d="M57.266,81.078h-3c-0.273,0-0.5,0.225-0.5,0.5s0.227,0.5,0.5,0.5h3c0.276,0,0.5-0.225,0.5-0.5S57.542,81.078,57.266,81.078
		z"/>
	<path d="M51.766,81.578c0-0.275-0.224-0.5-0.5-0.5h-3c-0.276,0-0.5,0.225-0.5,0.5s0.224,0.5,0.5,0.5h3
		C51.542,82.078,51.766,81.854,51.766,81.578z"/>
	<path d="M48.495,85.215h-3c-0.276,0-0.5,0.225-0.5,0.5s0.224,0.5,0.5,0.5h3c0.276,0,0.5-0.225,0.5-0.5S48.771,85.215,48.495,85.215
		z"/>
	<path d="M54.495,85.215h-3c-0.276,0-0.5,0.225-0.5,0.5s0.224,0.5,0.5,0.5h3c0.276,0,0.5-0.225,0.5-0.5S54.771,85.215,54.495,85.215
		z"/>
</g>
</svg>
