<?xml version="1.0" encoding="utf-8"?>
<!-- Generator: Adobe Illustrator 16.0.0, SVG Export Plug-In . SVG Version: 6.00 Build 0)  -->
<!DOCTYPE svg PUBLIC "-//W3C//DTD SVG 1.1//EN" "http://www.w3.org/Graphics/SVG/1.1/DTD/svg11.dtd">
<svg version="1.1" id="Layer_1" xmlns="http://www.w3.org/2000/svg" xmlns:xlink="http://www.w3.org/1999/xlink" x="0px" y="0px"
	 width="100px" height="100px" viewBox="0 0 100 100" enable-background="new 0 0 100 100" xml:space="preserve">
<g>
	<path d="M28.563,86.082c2.314,0,4.662-0.729,4.662-2.125V52.029c4.696,3.943,10.609,6.104,16.773,6.104
		c2.894,0,5.726-0.49,8.44-1.421v35.247c0,0.032,0.002,0.063,0.01,0.096c0.103,1.334,2.394,2.029,4.656,2.029
		c2.264,0,4.555-0.695,4.658-2.029c0.006-0.031,0.008-0.063,0.008-0.096v-40.82c5.297-4.93,8.334-11.881,8.334-19.115
		C76.107,17.628,64.396,5.916,50.001,5.916S23.895,17.628,23.895,32.024v51.934c0,0.044,0.006,0.088,0.019,0.129
		C24.05,85.396,26.32,86.082,28.563,86.082z M26.729,22.615l6.174,4.597c-0.346,1.227-0.563,2.498-0.637,3.802
		c-0.025,0.06-0.04,0.126-0.04,0.196v0.103l-7.113-2.561C25.395,26.61,25.941,24.553,26.729,22.615z M29.932,16.956l4.776,6.019
		c-0.603,1.018-1.1,2.099-1.49,3.225l-6.083-4.529C27.897,19.994,28.834,18.412,29.932,16.956z M59.41,8.752l-4.6,6.177
		c-1.101-0.31-2.237-0.516-3.412-0.609c-0.002-0.001-0.002-0.004-0.004-0.005c-0.168-0.126-0.391-0.127-0.56-0.024
		c-0.046-0.002-0.091-0.005-0.137-0.007l2.573-7.149C55.415,7.416,57.473,7.965,59.41,8.752z M65.068,11.953l-6.033,4.79
		c-0.574-0.341-1.165-0.654-1.779-0.93c-0.039-0.027-0.08-0.045-0.124-0.06c-0.428-0.188-0.866-0.352-1.313-0.507l4.535-6.089
		C62.029,9.921,63.611,10.857,65.068,11.953z M73.116,22.221l-7.623,1.116c-0.687-1.218-1.519-2.341-2.46-3.36l6.871-3.234
		C71.191,18.417,72.277,20.253,73.116,22.221z M74.854,28.487l-7.654-0.88c-0.301-1.161-0.711-2.274-1.227-3.331l7.521-1.101
		C74.134,24.868,74.596,26.645,74.854,28.487z M73.268,41.428l-6.156-4.583c0.371-1.325,0.59-2.705,0.644-4.118l7.132,2.568
		C74.605,37.407,74.061,39.467,73.268,41.428z M70.068,47.09l-4.771-6.013c0.605-1.019,1.107-2.095,1.499-3.22l6.065,4.518
		C72.107,44.039,71.172,45.62,70.068,47.09z M63.938,41.357c-0.104,0.154-0.211,0.307-0.318,0.458
		c-0.096,0.129-0.188,0.257-0.286,0.384c-0.114,0.148-0.229,0.294-0.353,0.438c-0.088,0.107-0.176,0.213-0.268,0.318l-3.271-1.284
		v-2.982l5.035,1.812c-0.09,0.153-0.182,0.305-0.274,0.454C64.113,41.091,64.025,41.224,63.938,41.357z M53.54,56.859l0.877-7.633
		c1.146-0.297,2.26-0.709,3.331-1.231l1.104,7.524c-0.029,0.012-0.056,0.024-0.082,0.035C57.07,56.188,55.32,56.605,53.54,56.859z
		 M40.595,55.293l4.598-6.174c1.314,0.371,2.69,0.589,4.111,0.644l-2.566,7.129C44.618,56.618,42.558,56.086,40.595,55.293z
		 M34.927,52.1l6.04-4.793c1.014,0.601,2.087,1.103,3.216,1.496l-4.525,6.078C37.993,54.125,36.401,53.208,34.927,52.1z
		 M33.228,50.691v-3.753l4.479-2.108c0.729,0.701,1.511,1.35,2.354,1.92l-5.922,4.7C33.831,51.2,33.521,50.957,33.228,50.691z
		 M32.228,75.007l-7.333-0.843V72.17l7.333,0.844V75.007z M24.895,71.164V69.17l7.333,0.844v1.993L24.895,71.164z M24.895,68.164
		V66.17l7.333,0.844v1.993L24.895,68.164z M24.895,65.164V63.17l7.333,0.844v1.993L24.895,65.164z M24.895,62.164V60.17l7.333,0.844
		v1.993L24.895,62.164z M24.895,59.164V57.17l7.333,0.844v1.993L24.895,59.164z M24.895,56.164V54.17l7.333,0.844v1.993
		L24.895,56.164z M32.228,54.007l-7.333-0.843V51.17l7.333,0.844V54.007z M24.895,50.164V48.17l7.333,0.843v1.913v0.081
		L24.895,50.164z M32.228,45.007l-7.333-0.843V42.17l7.333,0.843V45.007z M32.228,46.013v1.994l-7.333-0.843V45.17L32.228,46.013z
		 M32.228,42.007l-7.333-0.843V39.17l7.333,0.843V42.007z M24.895,75.17l7.333,0.844v1.993l-7.333-0.843V75.17z M33.228,40.899
		l1.281-0.188c0.688,1.218,1.519,2.341,2.461,3.36l-3.742,1.761V40.899z M33.228,39.888v-2.04c0.229,0.66,0.499,1.301,0.802,1.923
		L33.228,39.888z M32.228,39.007l-7.333-0.843v-2.633l7.333,0.843V39.007z M24.895,78.17l7.333,0.844v1.993l-7.333-0.843V78.17z
		 M50.001,48.799c-9.221,0-16.724-7.479-16.771-16.688c0.036-0.069,0.063-0.144,0.063-0.228c0-6.934,5.643-12.575,12.575-12.575
		s12.575,5.641,12.575,12.575c0,0.025,0.011,0.046,0.014,0.07c-0.004,0.024-0.014,0.045-0.014,0.07v14.468
		C55.868,47.998,52.958,48.799,50.001,48.799z M42.091,17.226c0.013-0.006,0.021-0.009,0.033-0.016
		c0.433-0.229,0.877-0.436,1.331-0.629l-0.836,2.136c-0.758,0.188-1.491,0.429-2.192,0.737l0.149-1.299
		C41.063,17.824,41.564,17.507,42.091,17.226z M56.002,16.378l-4.095,3.366c-0.978-0.488-2.015-0.865-3.106-1.107l2.475-3.323
		C52.932,15.439,54.516,15.805,56.002,16.378z M65.188,24.944l-7.136,0.993c-0.558-1.139-1.268-2.185-2.106-3.118l5.729-2.817
		C63.128,21.414,64.316,23.088,65.188,24.944z M65.805,37.655c-0.064,0.18-0.13,0.361-0.199,0.539
		c-0.058,0.145-0.119,0.288-0.182,0.431c-0.072,0.174-0.148,0.347-0.229,0.518c-0.066,0.143-0.139,0.283-0.209,0.424
		c-0.008,0.015-0.018,0.03-0.023,0.046l-5.518-1.986c-0.002,0-0.002,0-0.002,0v-3.102l6.605,2.379
		c-0.029,0.104-0.061,0.209-0.093,0.312C65.909,37.364,65.855,37.509,65.805,37.655z M61.959,43.771
		c-0.133,0.134-0.271,0.264-0.407,0.394c-0.116,0.111-0.233,0.223-0.354,0.331c-0.141,0.126-0.287,0.248-0.434,0.369
		c-0.127,0.104-0.25,0.21-0.381,0.311c-0.148,0.118-0.306,0.231-0.461,0.344c-0.133,0.097-0.263,0.196-0.398,0.29
		c-0.024,0.018-0.055,0.034-0.08,0.052v-3.118l2.543,0.999C61.979,43.752,61.968,43.762,61.959,43.771z M66.775,32.024
		c0,0.359-0.012,0.717-0.033,1.072c-0.008,0.12-0.023,0.237-0.033,0.356c-0.021,0.234-0.038,0.469-0.066,0.701
		c-0.02,0.14-0.043,0.277-0.063,0.416c-0.032,0.209-0.063,0.419-0.103,0.626c-0.029,0.146-0.063,0.289-0.096,0.433
		c-0.021,0.103-0.046,0.205-0.068,0.308l-6.867-2.472c-0.002,0-0.002,0-0.002,0v-1.44c0-0.025-0.012-0.046-0.016-0.07
		c0.006-0.024,0.016-0.045,0.016-0.07c0-0.34-0.025-0.673-0.051-1.006l7.067,0.812c0.021,0.002,0.039,0.003,0.06,0.003
		c0.086,0,0.166-0.029,0.236-0.069C66.759,31.758,66.775,31.889,66.775,32.024z M66.711,30.74c-0.044-0.019-0.087-0.039-0.137-0.044
		l-7.301-0.839c-0.155-1.033-0.422-2.028-0.797-2.971l7.123-0.991C66.2,27.416,66.581,29.042,66.711,30.74z M61.516,55.455
		c0.449-0.223,0.887-0.465,1.322-0.711l3.84,0.439c0.021,0.002,0.039,0.004,0.059,0.004c0.016,0,0.027-0.006,0.041-0.008v2.008
		l-7.295-0.838c0.658-0.257,1.305-0.537,1.936-0.845C61.449,55.492,61.48,55.473,61.516,55.455z M66.775,87.189l-7.334-0.842v-1.994
		l7.234,0.83c0.021,0.002,0.039,0.004,0.059,0.004c0.016,0,0.027-0.006,0.041-0.008V87.189L66.775,87.189z M66.775,84.189
		l-7.334-0.842v-1.994l7.234,0.83c0.021,0.002,0.039,0.004,0.059,0.004c0.016,0,0.027-0.006,0.041-0.008V84.189L66.775,84.189z
		 M66.775,81.189l-7.334-0.842v-1.994l7.234,0.83c0.021,0.002,0.039,0.004,0.059,0.004c0.016,0,0.027-0.006,0.041-0.008V81.189
		L66.775,81.189z M66.775,78.189l-7.334-0.842v-1.994l7.234,0.83c0.021,0.002,0.039,0.004,0.059,0.004
		c0.016,0,0.027-0.006,0.041-0.008V78.189L66.775,78.189z M66.775,75.189l-7.334-0.842v-1.994l7.234,0.83
		c0.021,0.002,0.039,0.004,0.059,0.004c0.016,0,0.027-0.006,0.041-0.008V75.189L66.775,75.189z M66.775,72.189l-7.334-0.842v-1.994
		l7.234,0.83c0.021,0.002,0.039,0.004,0.059,0.004c0.016,0,0.027-0.006,0.041-0.008V72.189L66.775,72.189z M66.775,69.189
		l-7.334-0.842v-1.994l7.234,0.83c0.021,0.002,0.039,0.004,0.059,0.004c0.016,0,0.027-0.006,0.041-0.008V69.189L66.775,69.189z
		 M66.775,66.189l-7.334-0.842v-1.994l7.234,0.83c0.021,0.002,0.039,0.004,0.059,0.004c0.016,0,0.027-0.006,0.041-0.008V66.189
		L66.775,66.189z M66.775,63.189l-7.334-0.842v-1.994l7.234,0.83c0.021,0.002,0.039,0.004,0.059,0.004
		c0.016,0,0.027-0.006,0.041-0.008V63.189L66.775,63.189z M66.775,60.189l-7.334-0.842v-1.994l7.234,0.83
		c0.021,0.002,0.039,0.004,0.059,0.004c0.016,0,0.027-0.006,0.041-0.008V60.189L66.775,60.189z M59.441,87.354l7.233,0.832
		c0.021,0.002,0.039,0.002,0.06,0.002c0.015,0,0.027-0.006,0.041-0.008v2.01l-7.334-0.844V87.354L59.441,87.354z M66.775,52.029
		v2.16l-2.555-0.293c0.399-0.263,0.799-0.526,1.188-0.813c0.238-0.176,0.473-0.361,0.705-0.547
		C66.333,52.368,66.563,52.209,66.775,52.029z M59.8,55.114l-1.112-7.612c0.172-0.097,0.348-0.187,0.517-0.29
		c1.032-0.628,1.985-1.348,2.854-2.142l3.229,6.864C63.6,53.229,61.759,54.283,59.8,55.114z M67.758,31.666
		c-0.021-1.031-0.124-2.042-0.313-3.024l7.539,0.866c0.082,0.828,0.125,1.667,0.125,2.516c0,0.754-0.041,1.504-0.107,2.25
		L67.758,31.666z M55.213,22.063c-0.718-0.683-1.511-1.285-2.363-1.8l4.19-3.445c1.394,0.647,2.685,1.473,3.838,2.46L55.213,22.063z
		 M50.001,15.249c0.023,0,0.048,0.004,0.073,0.004l-2.379,3.193c-0.6-0.081-1.207-0.138-1.827-0.138
		c-0.71,0-1.402,0.071-2.083,0.177l0.93-2.378C46.415,15.543,48.19,15.249,50.001,15.249z M44.169,15.228
		c-0.662,0.23-1.297,0.508-1.917,0.809l-1.1-7.507c1.692-0.639,3.471-1.1,5.313-1.361l-0.877,7.632
		C45.109,14.923,44.639,15.066,44.169,15.228z M41.313,16.523c-0.507,0.284-0.995,0.594-1.467,0.924
		c-0.024,0.015-0.05,0.029-0.069,0.048c-0.646,0.454-1.257,0.947-1.831,1.479l-3.225-6.854c1.673-1.288,3.51-2.373,5.479-3.211
		L41.313,16.523z M39.478,18.973l-0.115,1.001c-1.047,0.574-2.004,1.289-2.859,2.108C37.353,20.926,38.353,19.882,39.478,18.973z
		 M32.228,32.375v2.992l-7.333-0.843v-2.501c0-0.759,0.04-1.509,0.104-2.251L32.228,32.375z M28.563,85.082
		c-2.271,0-3.661-0.729-3.661-1.125c0-0.035-0.004-0.068-0.011-0.104v-2.687l7.333,0.844v1.944
		C32.228,84.354,30.836,85.082,28.563,85.082z M47.75,57.027l2.606-7.24c1.02-0.021,2.03-0.128,3.024-0.323l-0.865,7.533
		c-0.832,0.083-1.673,0.136-2.518,0.136C49.246,57.132,48.495,57.095,47.75,57.027z M66.771,91.957c0,0.396-1.391,1.125-3.66,1.125
		c-2.271,0-3.661-0.729-3.661-1.125c0-0.023-0.003-0.049-0.007-0.073v-1.528l7.234,0.83c0.021,0.002,0.039,0.004,0.059,0.004
		c0.016,0,0.027-0.006,0.041-0.008v0.7C66.771,91.908,66.771,91.934,66.771,91.957z M66.938,50.559
		c-0.274,0.252-0.574,0.476-0.857,0.715l-3.266-6.938c0.711-0.734,1.349-1.527,1.914-2.364l4.709,5.932
		C68.673,48.841,67.842,49.731,66.938,50.559z M69.264,15.94l-6.967,3.278c-0.729-0.701-1.511-1.35-2.354-1.92l5.935-4.709
		C67.107,13.597,68.242,14.719,69.264,15.94z M52.252,7.022l-2.605,7.242c-1.021,0.02-2.032,0.128-3.025,0.32l0.866-7.542
		c0.827-0.083,1.665-0.126,2.515-0.126C50.76,6.916,51.51,6.955,52.252,7.022z M33.917,12.762l3.271,6.947
		c-0.705,0.735-1.339,1.533-1.907,2.375l-4.713-5.937C31.574,14.916,32.695,13.783,33.917,12.762z"/>
</g>
</svg>
