<?xml version="1.0" encoding="utf-8"?>
<!-- Generator: Adobe Illustrator 16.0.0, SVG Export Plug-In . SVG Version: 6.00 Build 0)  -->
<!DOCTYPE svg PUBLIC "-//W3C//DTD SVG 1.1//EN" "http://www.w3.org/Graphics/SVG/1.1/DTD/svg11.dtd">
<svg version="1.1" id="Layer_1" xmlns="http://www.w3.org/2000/svg" xmlns:xlink="http://www.w3.org/1999/xlink" x="0px" y="0px"
	 width="100px" height="100px" viewBox="0 0 100 100" enable-background="new 0 0 100 100" xml:space="preserve">
<g>
	<path d="M94.041,50c0-0.276-0.225-0.5-0.5-0.5h-3.954l4.345-5.391c0.119-0.15,0.146-0.356,0.063-0.53s-0.261-0.284-0.451-0.284
		H74.791c-0.15,0-0.294,0.068-0.391,0.186L69.55,49.5H16.291v-3.955c0-0.004-0.002-0.007-0.002-0.011
		c-0.001-0.033-0.012-0.065-0.02-0.097c-0.008-0.033-0.011-0.067-0.025-0.097c-0.002-0.003-0.001-0.007-0.003-0.01
		c-0.011-0.023-0.03-0.038-0.043-0.058c-0.021-0.031-0.039-0.063-0.066-0.089c-0.026-0.024-0.056-0.04-0.086-0.058
		c-0.025-0.015-0.046-0.033-0.074-0.044c-0.039-0.015-0.081-0.02-0.123-0.025c-0.02-0.003-0.038-0.012-0.059-0.012
		c-0.003,0-0.006,0.002-0.009,0.002c-0.035,0.001-0.069,0.013-0.104,0.021c-0.031,0.007-0.063,0.01-0.092,0.023
		c-0.004,0.002-0.007,0.001-0.011,0.003l-9.333,4.455c-0.023,0.011-0.039,0.031-0.06,0.045c-0.001,0.001-0.002,0.001-0.003,0.002
		c-0.022,0.016-0.045,0.025-0.065,0.044c-0.007,0.007-0.012,0.013-0.019,0.019c-0.021,0.025-0.035,0.054-0.053,0.082l0,0
		c-0.012,0.019-0.029,0.031-0.038,0.053C6.001,49.793,6.001,49.796,6,49.798c-0.003,0.007-0.004,0.015-0.007,0.021
		c-0.012,0.031-0.015,0.064-0.02,0.099c-0.004,0.026-0.014,0.05-0.015,0.076c0,0.002-0.001,0.004-0.001,0.007
		c0,0.004,0.002,0.007,0.002,0.011c0.001,0.028,0.01,0.054,0.016,0.082c0.006,0.031,0.008,0.063,0.019,0.093
		C5.998,50.193,6,50.203,6.003,50.208c0.002,0.003,0.001,0.007,0.003,0.01c0.004,0.008,0.013,0.011,0.017,0.021
		c0.006,0.013,0.015,0.021,0.022,0.033c0.017,0.026,0.03,0.055,0.052,0.077c0.021,0.022,0.048,0.036,0.073,0.054
		c0.016,0.013,0.03,0.024,0.048,0.035c0.012,0.006,0.019,0.016,0.032,0.022l0.012,0.005l0,0l9.32,4.25c0.002,0,0.004,0,0.006,0
		c0.062,0.027,0.13,0.043,0.202,0.043c0.088,0,0.167-0.027,0.239-0.068c0.019-0.01,0.034-0.021,0.051-0.033
		c0.063-0.047,0.116-0.104,0.152-0.174c0.003-0.006,0.01-0.01,0.013-0.016c0.001-0.002,0.001-0.006,0.002-0.008
		c0.013-0.027,0.015-0.063,0.022-0.094c0.007-0.033,0.02-0.066,0.02-0.1c0-0.002,0.001-0.008,0.001-0.01V50.5h53.261l4.852,6.02
		c0.096,0.117,0.238,0.186,0.39,0.186h18.75c0.192,0,0.368-0.107,0.451-0.283c0.083-0.174,0.06-0.379-0.062-0.527L89.587,50.5h3.955
		C93.816,50.5,94.041,50.274,94.041,50z M75.029,44.293h17.467L88.303,49.5h-1.806l0.744-0.744c0.194-0.194,0.194-0.512,0-0.707
		c-0.195-0.195-0.513-0.195-0.707,0l-1.195,1.195l-1.194-1.195c-0.193-0.195-0.513-0.195-0.707,0c-0.193,0.195-0.193,0.513,0,0.707
		l0.744,0.744h-2.686l0.744-0.744c0.195-0.194,0.195-0.512,0-0.707c-0.195-0.195-0.512-0.195-0.707,0l-1.195,1.195l-1.195-1.195
		c-0.192-0.195-0.512-0.195-0.707,0c-0.192,0.195-0.192,0.513,0,0.707L79.18,49.5h-2.685l0.743-0.744
		c0.195-0.194,0.195-0.512,0-0.707c-0.194-0.195-0.512-0.195-0.706,0l-1.195,1.195l-1.194-1.195c-0.193-0.195-0.513-0.195-0.707,0
		c-0.193,0.195-0.193,0.513,0,0.707L74.18,49.5h-3.347L75.029,44.293z M8.667,49.5l6.624-3.162V49.5H8.667z M15.292,50.5v2.979
		L8.76,50.5H15.292z M75.029,55.705L70.836,50.5h3.247l-0.646,0.647c-0.195,0.193-0.195,0.512,0,0.707
		c0.098,0.098,0.226,0.145,0.354,0.145s0.256-0.049,0.354-0.145l1.195-1.195l1.195,1.195c0.098,0.098,0.227,0.145,0.354,0.145
		c0.129,0,0.256-0.049,0.354-0.145c0.194-0.195,0.194-0.514,0-0.707L76.598,50.5h2.486l-0.646,0.647
		c-0.192,0.193-0.192,0.512,0,0.707c0.101,0.098,0.229,0.145,0.354,0.145s0.256-0.049,0.354-0.145l1.192-1.195l1.195,1.195
		c0.098,0.098,0.226,0.145,0.354,0.145c0.127,0,0.256-0.049,0.354-0.145c0.193-0.195,0.193-0.514,0-0.707L81.598,50.5h2.487
		l-0.646,0.647c-0.195,0.193-0.195,0.512,0,0.707c0.098,0.098,0.226,0.145,0.354,0.145s0.256-0.049,0.354-0.145l1.195-1.195
		l1.195,1.195c0.098,0.098,0.227,0.145,0.354,0.145c0.129,0,0.256-0.049,0.354-0.145c0.194-0.195,0.194-0.514,0-0.707L86.6,50.5
		h1.705l4.194,5.206H75.029L75.029,55.705z"/>
</g>
</svg>
